<svg xmlns="http://www.w3.org/2000/svg" xmlns:xlink="http://www.w3.org/1999/xlink" width="1400" height="1100" viewBox="0 0 1400 1100">
  <defs>
    <clipPath id="clip-path">
      <rect width="1237.494" height="824" fill="none"/>
    </clipPath>
    <clipPath id="clip-Web_1920_3">
      <rect width="1400" height="1100"/>
    </clipPath>
  </defs>
  <g id="Web_1920_3" data-name="Web 1920 – 3" clip-path="url(#clip-Web_1920_3)">
    <rect width="1400" height="1100" fill="#fff"/>
    <g id="リピートグリッド_3" data-name="リピートグリッド 3" transform="translate(81 138)" clip-path="url(#clip-path)">
      <g id="グループ_3" data-name="グループ 3" transform="translate(-155 -219)">
        <g id="グループ_1" data-name="グループ 1" transform="translate(119 -58)">
          <g id="長方形_21" data-name="長方形 21" transform="translate(36 277)" fill="rgba(179,170,238,0.73)" stroke="#707070" stroke-width="1">
            <rect width="393" height="393" stroke="none"/>
            <rect x="0.5" y="0.5" width="392" height="392" fill="none"/>
          </g>
          <g id="パス_1" data-name="パス 1" transform="translate(46.494 277)" fill="rgba(179,170,238,0.73)">
            <path d="M392,393h0Z" stroke="none"/>
            <path d="M 0 393 L 392 393 L 0 393 Z" stroke="none" fill="#707070"/>
          </g>
        </g>
        <g id="長方形_36" data-name="長方形 36" transform="translate(186 246)" fill="#dbd6d6" stroke="#707070" stroke-width="1">
          <rect width="332" height="182" rx="20" stroke="none"/>
          <rect x="0.5" y="0.5" width="331" height="181" rx="19.5" fill="none"/>
        </g>
        <text id="title" transform="translate(199 477)" fill="rgba(5,3,17,0.73)" font-size="34" font-family="Meiryo"><tspan x="0" y="0">title</tspan></text>
        <text id="テキストテキストテキストテキストテキ_ストテキストテキストテキストテキスト" data-name="テキストテキストテキストテキストテキ
ストテキストテキストテキストテキスト" transform="translate(199 514)" fill="rgba(13,11,29,0.73)" font-size="18" font-family="Meiryo"><tspan x="0" y="0">テキストテキストテキストテキストテキ</tspan><tspan x="0" y="27">ストテキストテキストテキストテキスト</tspan></text>
        <text id="xxxx_xx_xx" data-name="xxxx/xx/xx" transform="translate(366 590)" fill="rgba(22,18,42,0.73)" font-size="28" font-family="Meiryo"><tspan x="0" y="0">xxxx/xx/xx</tspan></text>
      </g>
      <g id="グループ_3-2" data-name="グループ 3" transform="translate(268 -219)">
        <g id="グループ_1-2" data-name="グループ 1" transform="translate(119 -58)">
          <g id="長方形_21-2" data-name="長方形 21" transform="translate(36 277)" fill="rgba(179,170,238,0.73)" stroke="#707070" stroke-width="1">
            <rect width="393" height="393" stroke="none"/>
            <rect x="0.5" y="0.5" width="392" height="392" fill="none"/>
          </g>
          <g id="パス_1-2" data-name="パス 1" transform="translate(46.494 277)" fill="rgba(179,170,238,0.73)">
            <path d="M392,393h0Z" stroke="none"/>
            <path d="M 0 393 L 392 393 L 0 393 Z" stroke="none" fill="#707070"/>
          </g>
        </g>
        <g id="長方形_36-2" data-name="長方形 36" transform="translate(186 246)" fill="#dbd6d6" stroke="#707070" stroke-width="1">
          <rect width="332" height="182" rx="20" stroke="none"/>
          <rect x="0.5" y="0.5" width="331" height="181" rx="19.5" fill="none"/>
        </g>
        <text id="title-2" data-name="title" transform="translate(199 477)" fill="rgba(5,3,17,0.73)" font-size="34" font-family="Meiryo"><tspan x="0" y="0">title</tspan></text>
        <text id="テキストテキストテキストテキストテキ_ストテキストテキストテキストテキスト-2" data-name="テキストテキストテキストテキストテキ
ストテキストテキストテキストテキスト" transform="translate(199 514)" fill="rgba(13,11,29,0.73)" font-size="18" font-family="Meiryo"><tspan x="0" y="0">テキストテキストテキストテキストテキ</tspan><tspan x="0" y="27">ストテキストテキストテキストテキスト</tspan></text>
        <text id="xxxx_xx_xx-2" data-name="xxxx/xx/xx" transform="translate(366 590)" fill="rgba(22,18,42,0.73)" font-size="28" font-family="Meiryo"><tspan x="0" y="0">xxxx/xx/xx</tspan></text>
      </g>
      <g id="グループ_3-3" data-name="グループ 3" transform="translate(691 -219)">
        <g id="グループ_1-3" data-name="グループ 1" transform="translate(119 -58)">
          <g id="長方形_21-3" data-name="長方形 21" transform="translate(36 277)" fill="rgba(179,170,238,0.73)" stroke="#707070" stroke-width="1">
            <rect width="393" height="393" stroke="none"/>
            <rect x="0.5" y="0.5" width="392" height="392" fill="none"/>
          </g>
          <g id="パス_1-3" data-name="パス 1" transform="translate(46.494 277)" fill="rgba(179,170,238,0.73)">
            <path d="M392,393h0Z" stroke="none"/>
            <path d="M 0 393 L 392 393 L 0 393 Z" stroke="none" fill="#707070"/>
          </g>
        </g>
        <g id="長方形_36-3" data-name="長方形 36" transform="translate(186 246)" fill="#dbd6d6" stroke="#707070" stroke-width="1">
          <rect width="332" height="182" rx="20" stroke="none"/>
          <rect x="0.5" y="0.5" width="331" height="181" rx="19.5" fill="none"/>
        </g>
        <text id="title-3" data-name="title" transform="translate(199 477)" fill="rgba(5,3,17,0.73)" font-size="34" font-family="Meiryo"><tspan x="0" y="0">title</tspan></text>
        <text id="テキストテキストテキストテキストテキ_ストテキストテキストテキストテキスト-3" data-name="テキストテキストテキストテキストテキ
ストテキストテキストテキストテキスト" transform="translate(199 514)" fill="rgba(13,11,29,0.73)" font-size="18" font-family="Meiryo"><tspan x="0" y="0">テキストテキストテキストテキストテキ</tspan><tspan x="0" y="27">ストテキストテキストテキストテキスト</tspan></text>
        <text id="xxxx_xx_xx-3" data-name="xxxx/xx/xx" transform="translate(366 590)" fill="rgba(22,18,42,0.73)" font-size="28" font-family="Meiryo"><tspan x="0" y="0">xxxx/xx/xx</tspan></text>
      </g>
      <g id="グループ_3-4" data-name="グループ 3" transform="translate(-155 194)">
        <g id="グループ_1-4" data-name="グループ 1" transform="translate(119 -58)">
          <g id="長方形_21-4" data-name="長方形 21" transform="translate(36 277)" fill="rgba(179,170,238,0.73)" stroke="#707070" stroke-width="1">
            <rect width="393" height="393" stroke="none"/>
            <rect x="0.5" y="0.5" width="392" height="392" fill="none"/>
          </g>
          <g id="パス_1-4" data-name="パス 1" transform="translate(46.494 277)" fill="rgba(179,170,238,0.73)">
            <path d="M392,393h0Z" stroke="none"/>
            <path d="M 0 393 L 392 393 L 0 393 Z" stroke="none" fill="#707070"/>
          </g>
        </g>
        <g id="長方形_36-4" data-name="長方形 36" transform="translate(186 246)" fill="#dbd6d6" stroke="#707070" stroke-width="1">
          <rect width="332" height="182" rx="20" stroke="none"/>
          <rect x="0.5" y="0.5" width="331" height="181" rx="19.5" fill="none"/>
        </g>
        <text id="title-4" data-name="title" transform="translate(199 477)" fill="rgba(5,3,17,0.73)" font-size="34" font-family="Meiryo"><tspan x="0" y="0">title</tspan></text>
        <text id="テキストテキストテキストテキストテキ_ストテキストテキストテキストテキスト-4" data-name="テキストテキストテキストテキストテキ
ストテキストテキストテキストテキスト" transform="translate(199 514)" fill="rgba(13,11,29,0.73)" font-size="18" font-family="Meiryo"><tspan x="0" y="0">テキストテキストテキストテキストテキ</tspan><tspan x="0" y="27">ストテキストテキストテキストテキスト</tspan></text>
        <text id="xxxx_xx_xx-4" data-name="xxxx/xx/xx" transform="translate(366 590)" fill="rgba(22,18,42,0.73)" font-size="28" font-family="Meiryo"><tspan x="0" y="0">xxxx/xx/xx</tspan></text>
      </g>
      <g id="グループ_3-5" data-name="グループ 3" transform="translate(268 194)">
        <g id="グループ_1-5" data-name="グループ 1" transform="translate(119 -58)">
          <g id="長方形_21-5" data-name="長方形 21" transform="translate(36 277)" fill="rgba(179,170,238,0.73)" stroke="#707070" stroke-width="1">
            <rect width="393" height="393" stroke="none"/>
            <rect x="0.5" y="0.5" width="392" height="392" fill="none"/>
          </g>
          <g id="パス_1-5" data-name="パス 1" transform="translate(46.494 277)" fill="rgba(179,170,238,0.73)">
            <path d="M392,393h0Z" stroke="none"/>
            <path d="M 0 393 L 392 393 L 0 393 Z" stroke="none" fill="#707070"/>
          </g>
        </g>
        <g id="長方形_36-5" data-name="長方形 36" transform="translate(186 246)" fill="#dbd6d6" stroke="#707070" stroke-width="1">
          <rect width="332" height="182" rx="20" stroke="none"/>
          <rect x="0.5" y="0.5" width="331" height="181" rx="19.5" fill="none"/>
        </g>
        <text id="title-5" data-name="title" transform="translate(199 477)" fill="rgba(5,3,17,0.73)" font-size="34" font-family="Meiryo"><tspan x="0" y="0">title</tspan></text>
        <text id="テキストテキストテキストテキストテキ_ストテキストテキストテキストテキスト-5" data-name="テキストテキストテキストテキストテキ
ストテキストテキストテキストテキスト" transform="translate(199 514)" fill="rgba(13,11,29,0.73)" font-size="18" font-family="Meiryo"><tspan x="0" y="0">テキストテキストテキストテキストテキ</tspan><tspan x="0" y="27">ストテキストテキストテキストテキスト</tspan></text>
        <text id="xxxx_xx_xx-5" data-name="xxxx/xx/xx" transform="translate(366 590)" fill="rgba(22,18,42,0.73)" font-size="28" font-family="Meiryo"><tspan x="0" y="0">xxxx/xx/xx</tspan></text>
      </g>
      <g id="グループ_3-6" data-name="グループ 3" transform="translate(691 194)">
        <g id="グループ_1-6" data-name="グループ 1" transform="translate(119 -58)">
          <g id="長方形_21-6" data-name="長方形 21" transform="translate(36 277)" fill="rgba(179,170,238,0.73)" stroke="#707070" stroke-width="1">
            <rect width="393" height="393" stroke="none"/>
            <rect x="0.5" y="0.5" width="392" height="392" fill="none"/>
          </g>
          <g id="パス_1-6" data-name="パス 1" transform="translate(46.494 277)" fill="rgba(179,170,238,0.73)">
            <path d="M392,393h0Z" stroke="none"/>
            <path d="M 0 393 L 392 393 L 0 393 Z" stroke="none" fill="#707070"/>
          </g>
        </g>
        <g id="長方形_36-6" data-name="長方形 36" transform="translate(186 246)" fill="#dbd6d6" stroke="#707070" stroke-width="1">
          <rect width="332" height="182" rx="20" stroke="none"/>
          <rect x="0.5" y="0.5" width="331" height="181" rx="19.5" fill="none"/>
        </g>
        <text id="title-6" data-name="title" transform="translate(199 477)" fill="rgba(5,3,17,0.73)" font-size="34" font-family="Meiryo"><tspan x="0" y="0">title</tspan></text>
        <text id="テキストテキストテキストテキストテキ_ストテキストテキストテキストテキスト-6" data-name="テキストテキストテキストテキストテキ
ストテキストテキストテキストテキスト" transform="translate(199 514)" fill="rgba(13,11,29,0.73)" font-size="18" font-family="Meiryo"><tspan x="0" y="0">テキストテキストテキストテキストテキ</tspan><tspan x="0" y="27">ストテキストテキストテキストテキスト</tspan></text>
        <text id="xxxx_xx_xx-6" data-name="xxxx/xx/xx" transform="translate(366 590)" fill="rgba(22,18,42,0.73)" font-size="28" font-family="Meiryo"><tspan x="0" y="0">xxxx/xx/xx</tspan></text>
      </g>
    </g>
  </g>
</svg>
