<svg id="レイヤー_2" data-name="レイヤー 2" xmlns="http://www.w3.org/2000/svg" viewBox="0 0 600 600"><defs><style>.cls-1,.cls-2{fill:none;stroke:#000;stroke-miterlimit:10;}.cls-1{stroke-width:2px;}</style></defs><path d="M242.86,121.26a8.28,8.28,0,0,1,10.37,4c.41.87,1.71.11,1.29-.76A9.77,9.77,0,0,0,242.1,120c-.88.38-.12,1.67.76,1.29Z"/><path d="M244.41,116.47c-3.15-4.44-6.8-8.9-11.91-11.12-4.6-2-10.28-2-14.23,1.37A12.78,12.78,0,0,0,214.35,119a14.63,14.63,0,0,0,9.05,10c5.64,2.2,12.14.67,16.85-2.91.76-.58,0-1.88-.75-1.3a16.83,16.83,0,0,1-13.64,3.4,13.49,13.49,0,0,1-9.54-7.92,11.34,11.34,0,0,1,2-11.52c3.19-3.57,8.31-3.91,12.61-2.38,5.27,1.88,9,6.46,12.15,10.88.55.78,1.85,0,1.29-.76Z"/><path d="M268.24,142.89a15.16,15.16,0,0,0,14.49-5.1,12.28,12.28,0,0,0,.64-14.24,14,14,0,0,0-13.48-6.49c-5.09.54-10.05,3.49-11.9,8.44-2.05,5.5.29,11.81,5,15.14.78.56,1.53-.74.75-1.29A11.87,11.87,0,0,1,259,127.42c1-4.66,5.1-7.72,9.61-8.65A12.72,12.72,0,0,1,281.15,123c2.89,3.55,3.71,8.69,1.24,12.69a13.5,13.5,0,0,1-13.75,5.76c-.94-.19-1.34,1.26-.4,1.44Z"/><path d="M243,132.67a11.56,11.56,0,0,0-5.28,20.45c.75.6,1.82-.46,1.06-1.06a10.07,10.07,0,0,1,4.62-17.94c.95-.17.55-1.61-.4-1.45Z"/><path d="M231.48,154.74a63.73,63.73,0,0,1-40.21-2,.75.75,0,0,0-.84.35c-3.66,8.33-1.3,18.5,5.13,24.83,6.72,6.61,16.95,7.25,25.07,2.85a21.66,21.66,0,0,0,10-11.16l-1.37.18a50.79,50.79,0,0,0,26,24.57,49.5,49.5,0,0,0,36.67.5,50.13,50.13,0,0,0,17.84-11.51.75.75,0,0,0-.15-1.17l-30.62-15.65c-8.87-4.54-18-9.92-28-11.39A24.25,24.25,0,0,0,236,157.31c-.86.45-.1,1.75.76,1.3,8.76-4.58,18.92-1.53,27.38,2.24,4.61,2.05,9.06,4.44,13.55,6.74l14.64,7.48,16.42,8.39-.15-1.18a49.37,49.37,0,0,1-33.31,14.36A48.78,48.78,0,0,1,230.52,169c-.31-.64-1.16-.36-1.37.18-3,7.94-11.53,13.05-19.91,12.93-8.71-.13-15.75-6.46-18.17-14.62a20,20,0,0,1,.65-13.67l-.85.34a65.15,65.15,0,0,0,41,2,.75.75,0,0,0-.4-1.44Z"/><path d="M212,188.28c-.05,10.93,6.51,20.84,15.29,26.94,10.1,7,22.85,9.09,34.91,9.24a122,122,0,0,0,64.68-18.05,119.5,119.5,0,0,0,29-24.81c.62-.73-.44-1.8-1.06-1.06a120.76,120.76,0,0,1-54.15,36.37,118.74,118.74,0,0,1-32.56,6c-11.8.47-24.25-.56-35-5.93s-19.73-16.12-19.67-28.67a.75.75,0,0,0-1.5,0Z"/><path d="M210.46,128.79l-4.55,21.46c-.2.94,1.25,1.34,1.45.4l4.54-21.46c.2-.94-1.24-1.35-1.44-.4Z"/><path d="M288.33,77.82a15.75,15.75,0,0,0-8.11-11,20.5,20.5,0,0,0-15.09-1.71c-12,3-19.76,13.21-27.83,21.74-4.6,4.86-9.63,9.41-15.83,12.08-.89.38-.13,1.67.75,1.29,10.44-4.49,17.24-13.94,25-21.82,7.41-7.56,18.39-15.46,29.55-11.53,5,1.78,9.3,5.93,10.15,11.34.15,1,1.59.55,1.45-.4Z"/><path d="M289.85,78c6.72-5,16.69-5.08,23.26.28,6.35,5.19,8.61,13.51,11,21a73.74,73.74,0,0,0,4.32,11.23,46.2,46.2,0,0,0,6.5,9.48,51.13,51.13,0,0,0,18.69,13.28,47.91,47.91,0,0,0,25.59,3.23c.95-.14.55-1.59-.4-1.44-15.86,2.43-32.45-4.27-42.94-16.26a44.59,44.59,0,0,1-6.62-10,88.31,88.31,0,0,1-4.2-11.5c-2.32-7.36-4.87-15.31-11.15-20.29a20.75,20.75,0,0,0-24.79-.29c-.77.57,0,1.87.75,1.29Z"/><path d="M357,146.34a10.69,10.69,0,0,1,14.48,15.07A15.25,15.25,0,0,1,363.6,167c-4.34,1.46-9,1.45-13.51,1.45a.75.75,0,0,0,0,1.5c8,0,17.52-.39,22.57-7.64,4.21-6,1.81-15-5-18a12.62,12.62,0,0,0-11.45.74.75.75,0,0,0,.76,1.29Z"/><path d="M300,20c-9.7-7.41-22.36-9.11-34.14-7C253.32,15.25,242.27,21.8,233,30.4c-9.89,9.13-17.74,20.2-25.34,31.23q-6.57,9.54-13.11,19.11l-6.84,10c-2.1,3.06-4.48,6.07-6.1,9.41-3.28,6.77-1.72,14.91-.21,22,1.23,5.78,3.54,12.12,9.26,14.78.87.41,1.64-.88.76-1.29-5.16-2.4-7.24-8-8.42-13.2a82,82,0,0,1-1.54-9.19,24,24,0,0,1,.7-10.47c1.12-3.31,3.35-6.16,5.3-9l6.43-9.37,12.85-18.73c14-20.44,29.75-43.47,55.12-50.19,12.66-3.35,26.79-2.31,37.45,5.84.77.58,1.51-.72.76-1.3Z"/><path d="M302.19,22.69c14.2-6.63,30.76-4.86,44.64,1.72,14.91,7.07,26.09,19.37,33.83,33.76,8.19,15.22,12.64,32.22,15.72,49.13,3.23,17.68,4.37,38-7.44,52.94a37.25,37.25,0,0,1-9.2,8.19c-3.4,2.2-7,4.14-10.08,6.8-4.63,4-8,11.18-4.83,17.11a8.55,8.55,0,0,0,2.92,3.14v-1.3l-24.14,10.68c-.88.39-.12,1.68.76,1.29l24.14-10.67a.76.76,0,0,0,0-1.3c-2.91-1.9-3.7-5.47-3.19-8.74a15.11,15.11,0,0,1,5.4-9.14c3.18-2.76,7-4.7,10.45-7a37.71,37.71,0,0,0,8.95-8.14c11.38-14.51,11.14-33.85,8.25-51.16s-7.26-34.57-15.18-50.21c-7.36-14.53-18.09-27.36-32.59-35.14-13.3-7.14-29.45-10.14-44.05-5.29a47.94,47.94,0,0,0-5.12,2c-.87.41-.11,1.7.76,1.29Z"/><path d="M344.55,193.83,328.39,237.1c-.33.9,1.11,1.3,1.45.4L346,194.23c.33-.9-1.12-1.29-1.45-.4Z"/><path d="M238.15,223.86l-.71,10c-.07,1,1.43,1,1.5,0l.71-10c.07-1-1.43-1-1.5,0Z"/><path d="M279.42,279.77a138.48,138.48,0,0,0-37.9-39.35,136.83,136.83,0,0,0-11.65-7.22c-4.31-2.37-8.83-4.7-13.75-5.45a17.25,17.25,0,0,0-12,2.16,12.66,12.66,0,0,0-5.66,9.69c-.87,9.89,8,16.69,17.06,17.54,1,.09,1-1.41,0-1.5-8-.75-15.79-6.49-15.6-15.14a11.22,11.22,0,0,1,5.59-9.68c3.75-2.12,8.28-2.2,12.37-1.18,4.43,1.1,8.51,3.33,12.45,5.56,3.68,2.08,7.27,4.33,10.74,6.75a136.72,136.72,0,0,1,37,38.58c.51.81,1.81.06,1.29-.76Z"/><path class="cls-1" d="M229.28,254.2c-13.78,2.3-14.48,9.54-14.48,9.54v5.56a44.92,44.92,0,0,0-4.3,3.2c-1,1-1,4.19,0,6.6,0,0-6,4.4-6,6.4s-5.43,7-1.21,14.5,26.59,17.44,34.9,16"/><path d="M211.9,257.4a22,22,0,0,1-15.82,20.22.75.75,0,0,0,.4,1.45A23.5,23.5,0,0,0,213.4,257.4a.75.75,0,0,0-1.5,0Z"/><path d="M202.6,204.32l-1.24,23.94c-.05,1,1.45,1,1.5,0l1.24-23.94c.05-1-1.45-1-1.5,0Z"/><path d="M199.14,255.46a62.33,62.33,0,0,1-12.67,38.77c-.58.77.72,1.51,1.3.76a63.73,63.73,0,0,0,12.87-39.53.75.75,0,0,0-1.5,0Z"/><path d="M180.05,295.63a86.06,86.06,0,0,1-34.56,1.69c-1-.14-1.36,1.3-.4,1.45a88,88,0,0,0,35.36-1.69.75.75,0,0,0-.4-1.45Z"/><path d="M142.38,296.89a164.32,164.32,0,0,1-26.27-61.1,159.54,159.54,0,0,1-2.74-19.09c-.08-1-1.58-1-1.5,0a165,165,0,0,0,29.21,80.95c.55.78,1.85,0,1.3-.76Z"/><path d="M112.47,214.92a151.76,151.76,0,0,1,69.14-11.86,149.62,149.62,0,0,1,19.77,2.6c.94.19,1.34-1.26.39-1.45a152.39,152.39,0,0,0-90.06,9.41c-.88.38-.12,1.67.76,1.3Z"/><path d="M243,241.39a30.23,30.23,0,0,1,23.72,2.75c7.19,4.17,11.38,11.85,18.51,16.07a.75.75,0,0,0,.76-1.29c-5.9-3.5-9.66-9.46-15-13.66a31.52,31.52,0,0,0-17.63-6.6,30.78,30.78,0,0,0-10.79,1.28c-.92.28-.53,1.73.4,1.45Z"/><path d="M287.41,260.69c16.82-1.92,29.09-14.45,42.32-23.69.79-.55,0-1.85-.75-1.29-12.93,9-25.12,21.6-41.57,23.48-.94.11-1,1.61,0,1.5Z"/><path d="M336.16,224.51a49.31,49.31,0,0,1,18.53,6.11,45.93,45.93,0,0,1,8,5.67c2.27,2,4.92,5.07,4.15,8.38-.73,3.11-4.11,4.68-7,5-3.57.35-7.21-.45-10.77-.64a78.32,78.32,0,0,0-41.22,9.35c-.85.46-.1,1.75.75,1.29a76.94,76.94,0,0,1,43.11-8.95c3.65.32,7.55,1.11,11.11-.17,2.5-.9,4.84-2.77,5.48-5.45,1.54-6.4-6.12-11.55-10.66-14.45A51.11,51.11,0,0,0,336.16,223c-1-.11-1,1.39,0,1.5Z"/><path d="M294.9,261.6a7.48,7.48,0,0,0-7.87,4.55,7.23,7.23,0,0,0,2.73,8.56,7.37,7.37,0,0,0,9.21-.37,7.94,7.94,0,0,0,2.5-8.81,8.57,8.57,0,0,0-8.71-5.46c-.94.11-1,1.61,0,1.5a7.05,7.05,0,0,1,6.7,3.28,6.27,6.27,0,0,1-.53,7.41,6,6,0,0,1-7.09,1.94c-2.38-1.05-4.24-3.64-3.78-6.32a6,6,0,0,1,6.44-4.83c.95.14,1.35-1.3.4-1.45Z"/><path d="M286.74,265.74l-22-10.34c-.87-.41-1.64.89-.76,1.3L286,267c.87.41,1.63-.88.75-1.29Z"/><path d="M284,280.68a161.55,161.55,0,0,0-30.31,20.75c-4,3.43-7.93,7.27-10,12.19a15.06,15.06,0,0,0,1.06,13.8c2.9,4.78,7.61,8.22,12.14,11.34.8.55,1.55-.75.76-1.3-7.48-5.14-16.7-12.69-12.73-22.91,1.9-4.89,5.95-8.7,9.83-12.06a159.38,159.38,0,0,1,13.6-10.55,161.08,161.08,0,0,1,16.41-10c.85-.45.1-1.75-.76-1.3Z"/><path d="M266,317.73a6.61,6.61,0,0,0-6.81,5.35,6.61,6.61,0,0,0,12.12,4.37,7.2,7.2,0,0,0-.4-8.38,7.8,7.8,0,0,0-9.39-1.77c-.85.45-.09,1.74.76,1.29a6.36,6.36,0,0,1,6.79.75,5.52,5.52,0,0,1,1.43,6.44,5,5,0,0,1-5.37,3.18c-2.26-.37-4.49-2.19-4.55-4.61a5.11,5.11,0,0,1,5.42-5.12c1,.1,1-1.4,0-1.5Z"/><path d="M262.91,341.56c9,.87,17.57-3.1,24.63-8.43,7.33-5.52,13.18-12.63,19.72-19a65,65,0,0,1,12.2-9.66.75.75,0,0,0-.76-1.3c-15.51,9.16-24.36,26.59-41,34.19a29,29,0,0,1-14.8,2.71c-1-.09-1,1.41,0,1.5Z"/><path d="M286.34,282a36.88,36.88,0,0,1,29.2,17.78.75.75,0,0,0,1.29-.76,38.44,38.44,0,0,0-30.49-18.52c-1-.05-1,1.45,0,1.5Z"/><path d="M330.37,252.24a85.49,85.49,0,0,0-22.73,34.08c-.33.91,1.12,1.3,1.44.4a84,84,0,0,1,22.35-33.42c.72-.66-.35-1.71-1.06-1.06Z"/><path d="M161.43,303.62A406.67,406.67,0,0,0,138,352.27a412.25,412.25,0,0,0-16.89,51.58A417.61,417.61,0,0,0,108,511.37a406,406,0,0,0,4.13,53.85q.48,3.33,1,6.65c.15,1,1.6.55,1.45-.39a403.15,403.15,0,0,1-5-53.85,415.43,415.43,0,0,1,27.16-158.26,403.13,403.13,0,0,1,22.64-49.11q1.62-3,3.28-5.88a.75.75,0,0,0-1.3-.76Z"/><path d="M273.77,384.36a401.37,401.37,0,0,0-2.72,131.22q2.64,18.38,7,36.46c.22.94,1.67.54,1.44-.4a400.33,400.33,0,0,1-9.4-130.07q1.7-18.51,5.13-36.81c.17-.94-1.27-1.34-1.45-.4Z"/><path d="M426.55,253.9a132.21,132.21,0,0,0-23.9-11c-.91-.31-1.31,1.14-.4,1.45a129.63,129.63,0,0,1,23.54,10.84.75.75,0,0,0,.76-1.29Z"/><path d="M367.27,232.45c8.56-1.2,19.22-2.15,26.69,3.13,4.36,3.08,6.25,8,6.53,13.24.33,6.19-.58,12.5-1.05,18.66q-3.09,40.61-6.2,81.21l-3.5,45.84c-.07,1,1.43,1,1.5,0q3.21-42.11,6.43-84.2l3.2-41.86.8-10.46a74.73,74.73,0,0,0,.33-9c-.24-5.06-1.82-10-5.7-13.5-7.74-6.89-19.93-5.85-29.43-4.53-.95.13-.54,1.58.4,1.45Z"/><path d="M320.18,307.85q19.65,20.34,37.36,42.44t33.4,45.93q8.79,13.36,16.88,27.18a.75.75,0,0,0,1.29-.76q-14.4-24.6-31.05-47.78t-35.2-44.49q-10.5-12.08-21.62-23.58c-.67-.7-1.73.36-1.06,1.06Z"/><path d="M422.06,442.19c-1.39,3.12-2.85,6.76-1,10a4.86,4.86,0,0,0,6.88,2c2.75-1.7,3.81-5,4.25-8,.53-3.56.92-7.88,4.87-9.26,4.49-1.56,8.83,1.27,12.42,3.65.81.53,1.56-.77.76-1.3-2.84-1.88-5.83-3.82-9.3-4.21a8.5,8.5,0,0,0-7.85,3c-1.93,2.54-2,5.87-2.52,8.89-.45,2.59-2.23,6.86-5.51,6.51-1.86-.21-3-2-3.3-3.7-.4-2.34.7-4.72,1.63-6.8.39-.87-.91-1.64-1.3-.75Z"/><path d="M308.29,473.31c5.59,17.42,13.2,34.3,23.49,49.47,10.13,14.94,22.84,28.12,38,37.93,15,9.66,32.16,16,50,17.38a87.29,87.29,0,0,0,47.9-10.17c14.46-7.82,26.52-19.93,33.25-35,7.66-17.18,8.56-36.42,7.5-54.94a520.09,520.09,0,0,0-7.51-60.53,609,609,0,0,0-14-61c-5.41-19-11.45-38.09-19.16-56.31-5.92-14-13.93-28.55-27.2-36.79a41.06,41.06,0,0,0-10-4.48.75.75,0,0,0-.4,1.44c15.1,4.53,25,17.61,31.89,31.1a206.07,206.07,0,0,1,9.55,22.81q5.22,14.26,9.74,28.79,9,29,15.11,58.85a608.15,608.15,0,0,1,9.21,60.47c1.86,18.43,3,37.44-1.28,55.63a73.2,73.2,0,0,1-27.1,42,84.68,84.68,0,0,1-44.91,16.66c-17.48,1.2-35.08-3.06-50.68-10.88a125.62,125.62,0,0,1-41-33.48c-11.41-14.07-20.12-30.23-26.62-47.09-1.56-4.05-3-8.16-4.32-12.29-.3-.92-1.75-.53-1.45.4Z"/><path d="M266.25,348c9.9,13.76,14.31,30.35,17.63,46.74s5.64,33.32,11.62,49.11a79.51,79.51,0,0,0,13.57,23.61c.62.74,1.68-.32,1.06-1.06-10.86-12.75-15.95-28.95-19.48-45-3.6-16.46-5.72-33.32-11-49.39a90.12,90.12,0,0,0-12.12-24.73c-.56-.78-1.86,0-1.3.76Z"/><path d="M258.92,380c3.37,1.37,3.81,7,.52,8.64a5.31,5.31,0,0,1-5.09-.43,4.16,4.16,0,0,1-1.83-4.85c.7-2.2,3.06-4.07,5.44-3.64.94.17,1.35-1.27.4-1.44a6.55,6.55,0,0,0-6.81,3.55,5.69,5.69,0,0,0,1.15,7,7,7,0,0,0,6.56,1.47,5.72,5.72,0,0,0,3.92-5.36,6.51,6.51,0,0,0-3.86-6.39.75.75,0,0,0-.92.52.77.77,0,0,0,.52.92Z"/><path d="M255.31,438.83a3.9,3.9,0,0,1,3.41,2.64,3.32,3.32,0,0,1-1,3.94,4.3,4.3,0,0,1-4.1.41,3.24,3.24,0,0,1-1.88-3.44,4,4,0,0,1,3.12-3.52.75.75,0,0,0-.4-1.45,5.36,5.36,0,0,0-4.06,4,4.87,4.87,0,0,0,1.93,5.38,5.79,5.79,0,0,0,5.7.14,4.72,4.72,0,0,0,2.36-5.27,5.49,5.49,0,0,0-5-4.37.75.75,0,0,0,0,1.5Z"/><path d="M252.59,502.89c-3,3.31-.53,9.78,4.22,9.38a6.15,6.15,0,0,0,5.25-4.37,5.06,5.06,0,0,0-2.43-5.73,5.79,5.79,0,0,0-6.7.39c-.74.63.33,1.69,1.06,1.06,2.4-2.08,7-.11,6.75,3.22a4.59,4.59,0,0,1-3.38,3.83,3.53,3.53,0,0,1-4-1.88,4.25,4.25,0,0,1,.3-4.84c.65-.72-.41-1.78-1.06-1.06Z"/><path d="M281.31,102.56A24.27,24.27,0,0,1,297.57,115c.45.85,1.74.1,1.3-.76a25.77,25.77,0,0,0-17.16-13.14c-.94-.2-1.34,1.24-.4,1.45Z"/><path class="cls-2" d="M249.29,93.61s-3-7.55-10.89-6.83"/><path d="M184.8,309.36q-4.92,25.08-8.68,50.35t-6.3,50.4q-2.58,25.29-4,50.68t-1.61,51.07c-.13,16.67-.38,33.58,2.62,50q.55,3.06,1.28,6.08c.22.94,1.67.54,1.45-.4-3.88-16.32-3.93-33.21-3.88-49.9q.07-25.29,1.31-50.57t3.68-50.71q2.42-25.33,6-50.53T185,316q.6-3.11,1.21-6.21c.18-.94-1.26-1.35-1.45-.4Z"/><path d="M227.55,193.61a8.49,8.49,0,0,0,9.66-1.38c.7-.67-.36-1.73-1.06-1.06a7,7,0,0,1-7.84,1.14c-.86-.44-1.62.85-.76,1.3Z"/><path d="M137.61,196.91c2.39-4,.38-8.84-3-11.61-4.42-3.67-10.41-3.13-15.62-1.69-6.14,1.71-12.46,5.08-19,4-4.6-.76-8.81-4.74-8.3-9.72.58-5.69,7.55-5.17,11.54-6.78a7.35,7.35,0,0,0,4.41-9.3,12.2,12.2,0,0,0-8.16-8.2c-5.9-1.55-12,1.08-17.31,3.4-5.12,2.24-10.72,4.71-16.45,3.82-5.37-.83-8.86-5-9.36-10.34-.47-4.93,1-9.94,2.67-14.51,2.39-6.34,5.14-12.58,7.91-18.76,4.91-10.94,10.51-21.89,18.89-30.61,7.85-8.17,18.55-14.2,30.05-14.67,5.47-.23,11.25.79,15.92,3.77,4.43,2.83,8.25,7.83,6.73,13.36-1.38,5-6.3,8.11-10.45,10.69-4.38,2.72-9.11,5.74-11.38,10.59a10.34,10.34,0,0,0-.79,6.83.77.77,0,0,0,.92.53c5.4-.74,11.06-1.51,16.41-.1,4.45,1.17,8.64,4.24,10.28,8.67,3.57,9.65-8.54,14.24-12.76,20.89-2,3.18-3.25,7.55-.92,10.91,2.12,3.05,5.79,3.61,9.24,3.66,3.85.05,8.28-.58,11.7,1.6,3.08,2,4.44,5.71,4.52,9.23.23,10.71-10.37,16.37-18.65,20.56-.86.43-.11,1.73.75,1.29,7.63-3.85,17-8.76,19-17.92a15.47,15.47,0,0,0-1.36-10.71c-1.93-3.42-5.26-5.08-9.07-5.45-4-.39-8.64.73-12.4-1-4.84-2.24-3.81-7.87-1.42-11.56,2.56-3.94,6.79-6.32,9.89-9.8,2.86-3.21,4.42-7.32,3.09-11.57-1.47-4.7-5.61-8.31-10.2-9.84-6-2-12.41-1.12-18.51-.29l.93.53c-1.37-6,4-10.94,8.55-13.91,4.15-2.73,8.78-5.05,11.86-9.09a11.75,11.75,0,0,0,.69-13.62c-2.77-4.41-7.54-7.25-12.46-8.61-10.86-3-22.57.15-31.82,6.15C84.15,84.2,77,94.19,71.4,104.61c-2.92,5.46-5.47,11.12-7.93,16.8S58.22,133,56.4,139.09c-1.39,4.57-2.33,9.74-1,14.44a12.24,12.24,0,0,0,9.91,8.74c5.52.89,11-1.07,16-3.25,5.47-2.39,12.25-5.85,18.35-3.8,3.91,1.31,7.53,5.88,6.84,10.15-.88,5.43-7.83,4.84-11.73,6.5-4.09,1.73-5.46,6-4,10,1.77,4.78,6.15,7.23,11.12,7.38,6.45.2,12.31-2.91,18.41-4.46,5.83-1.48,12.67-1.21,15.87,4.69a6.59,6.59,0,0,1,.12,6.65.75.75,0,0,0,1.29.75Z"/></svg>