<svg id="レイヤー_2" data-name="レイヤー 2" xmlns="http://www.w3.org/2000/svg" viewBox="0 0 600 600"><defs><style>.cls-1{fill:none;stroke:#000;stroke-miterlimit:10;stroke-width:2px;}</style></defs><path d="M274.66,143.44a15.06,15.06,0,0,1,16.08,1.1c.77.58,1.52-.72.76-1.3a16.57,16.57,0,0,0-17.6-1.1c-.84.46-.09,1.76.76,1.3Z"/><path d="M271.63,141.91c-6.24-7.12-19.76-13.34-27.93-5.75-4.16,3.85-3.77,10.06.21,13.89,3.82,3.67,9.89,4.94,15,4.81,5.42-.13,10.92-2.62,12.4-8.23a.75.75,0,0,0-1.45-.4c-1.19,4.53-5.44,6.7-9.84,7.07s-9.81-.53-13.6-3.1c-4.29-2.91-5.95-8.76-2-12.72,3.44-3.44,8.6-3.74,13.07-2.56a26.57,26.57,0,0,1,13,8.05c.64.73,1.7-.33,1.07-1.06Z"/><path d="M306.69,131.84a34.57,34.57,0,0,0-9.07,3.68c-2.31,1.36-4.81,3-6,5.52a6.2,6.2,0,0,0,.86,6.82c1.88,2.32,4.8,3.26,7.56,4.08,5.76,1.71,12.4,3.38,17.89,0,4.45-2.73,6.32-8,3.58-12.66-3.55-6-10.88-6.87-17.2-7.18-1,0-1,1.46,0,1.5,5,.24,10.61.65,14.33,4.41a8.71,8.71,0,0,1,2.72,6.08,7.78,7.78,0,0,1-3,5.75c-4.25,3.49-10,2.8-15,1.49a30,30,0,0,1-7.58-2.62c-2.23-1.3-4-3.74-3.09-6.41s3.78-4.38,6.1-5.7a32.76,32.76,0,0,1,8.33-3.3.75.75,0,0,0-.4-1.45Z"/><path d="M275.15,159.26c1.53,5.73-2.39,11.25-1.34,17a7.65,7.65,0,0,0,3.68,5.51,5.66,5.66,0,0,0,5.85-.16c.79-.55,0-1.85-.76-1.3a4.39,4.39,0,0,1-5.53-.71c-1.62-1.62-2-4.1-1.92-6.31.26-4.9,2.79-9.5,1.47-14.46a.75.75,0,0,0-1.45.4Z"/><path d="M277.3,95.22c-.85-6.09-4.6-11.3-11-11.93-6-.59-11.89,2.88-15.39,7.59-1.91,2.58-3.25,5.72-4.8,8.53s-3.23,5.85-4.93,8.72a107.34,107.34,0,0,1-11.08,15.92A55.83,55.83,0,0,1,213,137.62c-.87.43-.11,1.73.75,1.29,10.91-5.48,19-14.69,25.48-24.82,3.39-5.28,6.41-10.79,9.43-16.29,1.47-2.7,2.76-5.58,4.91-7.82a17.4,17.4,0,0,1,7.71-4.72c3.26-.92,7.08-.74,9.88,1.33s4.2,5.59,4.69,9c.13.95,1.57.55,1.44-.4Z"/><path d="M196.63,149.1c-4.31,10.28,3,22.1,14,23.17,1,.09,1-1.41,0-1.5-10.15-1-16.42-12-12.53-21.27.37-.89-1.08-1.28-1.44-.4Z"/><path d="M213.24,149.22a23.27,23.27,0,0,0-3.91-4.38.75.75,0,1,0-1.06,1.07,16.9,16.9,0,0,1,2,2c.3.34.59.7.88,1.06l.09.12c.15.19,0-.05.05.06s.13.18.2.26l.45.61a.77.77,0,0,0,1,.27.76.76,0,0,0,.27-1Z"/><path d="M351.85,146.62c3.36-2.07,7-4.24,11-4.15a7.63,7.63,0,0,1,7.49,5.64c2,7.35-4.41,13-9.85,16.6-3.47,2.31-7.08,4.46-10,7.46-.67.69.39,1.75,1.06,1.06,5.79-5.9,14.65-8.57,18.88-16,3.42-6,1.73-14.88-6-16.09-4.9-.78-9.36,1.73-13.37,4.2-.82.51-.07,1.8.75,1.3Z"/><path d="M212.57,172c2.43,13.37,5.42,27.21,16,36.71A65.74,65.74,0,0,0,244.75,219c6.4,3,13,5.69,19.6,8.22a94.8,94.8,0,0,0,21.54,5.93,59.73,59.73,0,0,0,53-20.64,60.3,60.3,0,0,0,13.83-40.57c0-1-1.53-1-1.5,0a58.84,58.84,0,0,1-10.83,36.17,57.48,57.48,0,0,1-31.06,21.77A58.3,58.3,0,0,1,290.52,232a76.41,76.41,0,0,1-21.41-4.69c-6.62-2.32-13.13-5.05-19.56-7.85a85.32,85.32,0,0,1-16.46-9,40.19,40.19,0,0,1-13.43-17.05c-2.92-7-4.3-14.47-5.64-21.86-.18-1-1.62-.55-1.45.4Z"/><path d="M195.83,138.12c-2.38-14.89.36-30,6.21-43.75s14.59-26.56,24.15-38.22a12.13,12.13,0,0,0,2.48-3.79,3.67,3.67,0,0,1,1.38-2.11,11.39,11.39,0,0,0,1.85-1.69c2.39-2.72,4.59-5.56,7.64-7.58,6.06-4,13.49-4.2,20.22-1.86A84.42,84.42,0,0,1,270,43.88c1.7.86,3.41,1.7,5.16,2.45a20.08,20.08,0,0,0,5.24,1.75,11.28,11.28,0,0,0,5.39-.74,39,39,0,0,0,4.81-2.67,40.87,40.87,0,0,1,10.83-4.13c14.75-3.29,30,2.72,40.93,12.57,10.06,9.07,16.31,21.35,20.76,34,4.39,12.4,9.44,27.42,3.92,40.26a27.09,27.09,0,0,1-2.64,4.7,10.5,10.5,0,0,1-1.89,2.3,9.55,9.55,0,0,1-2.35,1.11,32.66,32.66,0,0,1-8.82,2.07,36,36,0,0,1-18.14-3.06c-5.59-2.55-11.27-6.74-14-12.38a48.11,48.11,0,0,1-3.3-10.23c-.78-3.3-1.62-6.6-2.35-9.91-1.27-5.83-5.77-11.19-11.66-12.73-5.7-1.49-12.15-1.65-17.64.67A19.35,19.35,0,0,0,277,95.25c-.61.73.44,1.8,1.07,1.06,4.45-5.28,11-7.1,17.7-6.59a20.44,20.44,0,0,1,9.26,2.53,15.41,15.41,0,0,1,6.29,7.55,44.55,44.55,0,0,1,1.31,4.82c.46,1.75.85,3.52,1.25,5.28a74.15,74.15,0,0,0,2.94,10.49,23,23,0,0,0,5.16,8.06,34.25,34.25,0,0,0,7.4,5.71,37.58,37.58,0,0,0,17.7,5,35.41,35.41,0,0,0,9.12-.91,32.7,32.7,0,0,0,4.51-1.41c.63-.25,1.26-.52,1.88-.81a4.86,4.86,0,0,0,1.86-1.6c9.35-11.54,6.65-26.95,2.64-40-4-12.92-9.08-25.81-17.84-36.27-9.22-11-22.81-19.21-37.37-19.94a41.32,41.32,0,0,0-21.66,5A37.81,37.81,0,0,1,285,46a9.49,9.49,0,0,1-6.66,0,95.39,95.39,0,0,1-10.75-5c-6.42-3.25-13.23-5.82-20.54-4.57A21.75,21.75,0,0,0,238,40.21c-3,2.16-5.08,5.08-7.59,7.73-.6.63-1.34,1-2,1.53a4.4,4.4,0,0,0-1,1.85,7.32,7.32,0,0,1-1,2.15c-.59.78-1.26,1.51-1.87,2.27q-3.67,4.51-7.12,9.2a159.72,159.72,0,0,0-12.43,19.64c-7,13.21-11.71,27.83-11.61,42.89a74.45,74.45,0,0,0,.94,11.05c.16.95,1.6.55,1.45-.4Z"/><path d="M210.61,172.33l2.67.1a.74.74,0,0,0,.75-.75.77.77,0,0,0-.75-.75l-2.67-.1a.76.76,0,0,0-.75.75.77.77,0,0,0,.75.75Z"/><path d="M350.39,172.93l.51,2a.76.76,0,0,0,.92.53.78.78,0,0,0,.52-.93l-.51-2a.75.75,0,0,0-.92-.52.76.76,0,0,0-.52.92Z"/><path d="M350.58,174.34l.09,2.11.49-.06-.45-1.84a.25.25,0,0,0-.48.13l.45,1.84a.25.25,0,0,0,.49-.07l-.09-2.11a.26.26,0,0,0-.25-.25.25.25,0,0,0-.25.25Z"/><path d="M197.83,149.81a8.53,8.53,0,0,1,12.07-2.69c.8.53,1.55-.77.75-1.3a9.93,9.93,0,0,0-14.12,3.23.75.75,0,0,0,1.3.76Z"/><path d="M278.15,193c-1.87-4.82-6.56-7.84-11.55-8.65-6.25-1-12.69.81-18.61,2.68-3,1-6,2.07-9,3.3-1.44.61-2.87,1.24-4.27,1.92a3.76,3.76,0,0,0-2.25,2.26c-.62,2.39,1.77,4.47,3.39,5.81a31.82,31.82,0,0,0,6.43,4.15,34.76,34.76,0,0,0,29.24.64c2.66-1.2,5.69-3.64,8.76-2.47a21.27,21.27,0,0,1,3.84,2.4,29.37,29.37,0,0,0,3.69,2,33.09,33.09,0,0,0,15.5,2.94c10.9-.58,24.46-7.45,25.27-19.68a.76.76,0,0,0-.95-.73c-4.32,1.78-8.3-1.41-11.62-3.79a18.28,18.28,0,0,0-11-3.82c-8.72,0-15.86,5.51-22.39,10.66-.76.6.31,1.65,1.06,1.06,6.6-5.2,14.09-10.94,23-10.16,4.4.39,7.49,2.88,11,5.28,3,2,6.79,3.7,10.38,2.22l-.94-.72c-.68,10.29-11.75,16.56-20.91,17.9a32,32,0,0,1-14.75-1.33,29,29,0,0,1-6.54-3.15c-2.09-1.34-4-3.07-6.65-2.9s-4.73,1.68-7,2.74a30.21,30.21,0,0,1-6.54,2.22,33.39,33.39,0,0,1-14.11,0A32.69,32.69,0,0,1,238,200c-1.48-1.12-6-4.46-3-6.2a53.71,53.71,0,0,1,8.17-3.53c6-2.29,12.68-4.56,19.19-4.74,5.71-.17,12.21,2.07,14.44,7.82.34.89,1.79.5,1.44-.4Z"/><path d="M231.16,213.44A60.87,60.87,0,0,0,267.79,247c16.7,5.57,35.1,2.81,49.88-6.58a59.41,59.41,0,0,0,20.05-21.06c.47-.85-.83-1.6-1.3-.76a59.32,59.32,0,0,1-39.91,28.75c-16.66,3.34-34-1.48-47.09-12.16A57.58,57.58,0,0,1,232.6,213c-.37-.88-1.82-.49-1.44.4Z"/><path d="M226.3,213.28a57.73,57.73,0,0,0-14.35,14,53.16,53.16,0,0,0-5.18,8.83c-1.4,3-2.42,6.5-1,9.73,2.9,6.61,11.17,7.13,17.37,7.63a208.14,208.14,0,0,0,24.47.51,210.26,210.26,0,0,0,27.19-2.84c.95-.16.55-1.61-.4-1.45a206.84,206.84,0,0,1-45.21,2.67c-3.65-.18-7.33-.4-11-.86-3.32-.42-6.79-1.26-9.26-3.67-5.34-5.21-.26-13,3-17.94a55.56,55.56,0,0,1,15.08-15.29c.79-.54,0-1.84-.76-1.29Z"/><path d="M286.46,252.94a195.3,195.3,0,0,0,54.74.62c6-.79,12.76-2.27,17-6.88,4.73-5.08,4.22-12.44.64-18-4.7-7.33-13.4-10.27-21.27-12.83-.92-.3-1.31,1.14-.4,1.44,6.75,2.2,14.18,4.58,18.93,10.19,4.23,5,5.93,12.64,1.25,17.92-4,4.53-10.62,5.94-16.36,6.71a189.19,189.19,0,0,1-25.18,1.59,195.35,195.35,0,0,1-29-2.19c-.95-.14-1.35,1.31-.4,1.45Z"/><path d="M277,256.25a48.47,48.47,0,0,0,13.63,32.26.75.75,0,0,0,1.25-.33l4.6-26.59H295a6.49,6.49,0,0,0,2.56,4.37c.77.57,1.66.91,2.46,1.43s2.19,1.95,1,2.8c-.77.57,0,1.87.76,1.29,1.61-1.19,1.26-3.42-.11-4.69a31.49,31.49,0,0,0-3.22-2,5.13,5.13,0,0,1-2-3.59c-.1-.72-1.32-.7-1.45,0l-4.59,26.59,1.25-.33a46.91,46.91,0,0,1-13.19-31.2c0-1-1.53-1-1.5,0Z"/><path d="M235.41,256.77a96.14,96.14,0,0,0,39.29,26.77,94.81,94.81,0,0,0,13.2,3.72c1,.19,1.35-1.26.4-1.45a94.06,94.06,0,0,1-51.83-30.1c-.63-.73-1.69.33-1.06,1.06Z"/><path d="M297,287.7a89.93,89.93,0,0,0,31.4-31.49.75.75,0,0,0-1.29-.76,88.35,88.35,0,0,1-30.87,31,.75.75,0,0,0,.76,1.29Z"/><path d="M213,223.35A42.83,42.83,0,0,0,190.85,228c-.86.44-.1,1.73.76,1.29A41.36,41.36,0,0,1,213,224.85c1,.06,1-1.44,0-1.5Z"/><path d="M191,229.25a227.46,227.46,0,0,0,7.1,25.48,173.71,173.71,0,0,0,9.48,23.14c3.48,6.77,8.16,12.7,15,16.29,7.15,3.76,15.37,5.28,23.23,6.77a230.06,230.06,0,0,0,53.68,3.83,225.19,225.19,0,0,0,26.43-2.84c4.28-.72,8.57-1.51,12.79-2.55a27.87,27.87,0,0,0,10-4.27c6.1-4.55,8.13-12.49,9.77-19.53a118.87,118.87,0,0,0,3.1-25.9c0-2.22,0-4.45-.13-6.66-.05-1-1.55-1-1.5,0a117.65,117.65,0,0,1-1.59,25.63,111.46,111.46,0,0,1-2.82,12.25,30.43,30.43,0,0,1-4.4,9.68c-4.73,6.39-13.35,7.61-20.63,9a222.21,222.21,0,0,1-26.2,3.41,226.8,226.8,0,0,1-52.12-2.44c-7.94-1.3-16.12-2.68-23.71-5.42a34.4,34.4,0,0,1-10.2-5.55,34,34,0,0,1-7.17-8.46c-4.19-6.78-7.09-14.44-9.83-21.88a226.73,226.73,0,0,1-7.41-24.16c-.51-2.07-1-4.14-1.44-6.22-.2-.94-1.65-.54-1.44.4Z"/><path d="M361.85,229.1c-.27-2.6-.51-5.22-.82-7.82a6.16,6.16,0,0,0-2.71-4.88c-3.87-2.45-8.32-.33-11.87,1.64-.84.47-.09,1.77.76,1.3,3.06-1.7,7-3.78,10.35-1.64,1.68,1.06,1.89,2.81,2.08,4.63l.71,6.77c.1,1,1.6,1,1.5,0Z"/><path d="M187,228.07l-13.72,9-6.85,4.5a25.78,25.78,0,0,0-3.7,2.45,22.88,22.88,0,0,0-1.6,1.94q-5,6.06-10,12.18-8.31,10.19-16.52,20.47-10.11,12.66-20,25.45-10.38,13.41-20.48,27c-6.16,8.37-12.23,16.81-18,25.44A212.34,212.34,0,0,0,63.61,377a53.3,53.3,0,0,0-3.27,7.37,11.39,11.39,0,0,0-.74,5.44c.7,4.41,3.79,8,7.18,10.69a56,56,0,0,0,13.83,7.62A132.7,132.7,0,0,0,106,415.36l1.5.27c1,.16,1.35-1.29.4-1.44a136.16,136.16,0,0,1-19-4.68,86.46,86.46,0,0,1-15.13-6.23c-4.11-2.24-8.33-5-10.89-9.07a10.11,10.11,0,0,1-1.72-7.32,29.84,29.84,0,0,1,2.3-6.27,156.35,156.35,0,0,1,11-18.95c5.41-8.31,11.14-16.42,17-24.44q9.78-13.46,19.94-26.62,9.94-12.94,20.11-25.73,8.63-10.86,17.36-21.62,5.79-7.14,11.63-14.22l2.79-3.38a6.71,6.71,0,0,1,.48-.58,4.79,4.79,0,0,1,.7-.44l3.32-2.18,6.85-4.5,13.09-8.59c.81-.53.06-1.83-.75-1.3Z"/><path d="M164.4,249.44c11.38,19.19,23.83,40.81,19,64a40.41,40.41,0,0,1-7,15.93c-.58.78.72,1.53,1.29.76,6.45-8.7,8.77-19.72,8.18-30.4-.64-11.58-4.72-22.6-9.91-32.87-3.13-6.21-6.68-12.19-10.22-18.17a.75.75,0,0,0-1.3.75Z"/><path d="M360.91,218.42c4.32-1.4,8.88-2.91,13.49-2.39,3.82.43,7.58,2.35,9.26,6s1.15,8.24.85,12.23l-1.13,14.55-1.28,16.51c-.07,1,1.43,1,1.5,0l2.46-31.79c.32-4.14.71-8.59-1.19-12.44a12.36,12.36,0,0,0-8.82-6.27c-5.28-1.07-10.56.58-15.54,2.19-.92.3-.53,1.75.4,1.45Z"/><path d="M89.2,440.77l42.38-51.09,21-25.35q5.19-6.27,10.39-12.53a112.72,112.72,0,0,1,9.67-10.59c7.69-7.16,18.64-12.64,29.21-8.76.91.34,1.3-1.11.4-1.44-8.82-3.25-18.56-.18-25.87,5.15-8.18,6-14.32,14.4-20.72,22.11l-43.18,52.05L88.14,439.71c-.62.74.44,1.8,1.06,1.06Z"/><path d="M221.4,339.16c5.9,2.65,14.14,6.54,14.75,13.95.26,3.23-1.29,7.27-4.73,8.15-3.08.78-6.87-1.64-6.54-5l-1.47.2c1.76,5.2,4.09,13.21-1.78,16.84-5.31,3.28-10.3-3-12.9-6.87a.75.75,0,0,0-1.3.76c2.73,6.16,6,14.23.89,20.12-1.91,2.19-4.84,3.51-7.7,2.47a7.44,7.44,0,0,1-4.78-7.39l-1.47.2c.68,4.68-1.91,10.11-7.17,10.26a5.38,5.38,0,0,1-5.23-3,5,5,0,0,1,.94-5.64c.7-.66-.36-1.72-1.06-1.06a6.45,6.45,0,0,0-1.37,7,6.75,6.75,0,0,0,6,4.23c6.66.44,10.18-6.3,9.33-12.15-.13-.88-1.42-.59-1.48.2a8.92,8.92,0,0,0,5.06,8.5,8.27,8.27,0,0,0,9-1.56c6.93-6.14,3.44-15.8.3-22.9l-1.3.76c3.06,4.55,8.53,11,14.67,7.57a10,10,0,0,0,4.65-7.08c.66-4-.64-7.91-1.9-11.62a.75.75,0,0,0-1.47.2c-.28,2.83,1.77,5.18,4.3,6.15a6.83,6.83,0,0,0,7.76-2.08c4.47-5.33,1.61-12.58-3.12-16.57a42.22,42.22,0,0,0-10.16-5.89c-.88-.4-1.64.9-.76,1.29Z"/><path d="M61.77,406.68c-9.3,15.6-19.16,32.24-19.57,50.93a46.66,46.66,0,0,0,5.11,23.06,36.15,36.15,0,0,0,17.44,15.92c16.41,7.21,34.71,3.14,49.88-5.16a115.91,115.91,0,0,0,36.93-32.59,119.38,119.38,0,0,0,20.47-44c.46-2,.86-4,1.22-6,.16-.95-1.28-1.35-1.45-.4a118.06,118.06,0,0,1-50.56,77.32c-14.42,9.55-32.15,16.28-49.52,11.76A36.81,36.81,0,0,1,51.89,485c-4.91-6.24-7.42-14.11-8-22-1.42-18,6.92-34.64,15.76-49.77,1.14-1.94,2.3-3.88,3.45-5.81a.75.75,0,0,0-1.29-.76Z"/><path d="M230.26,339.2a28,28,0,0,1,23.63,7.2c.7.66,1.76-.39,1.06-1.06a29.66,29.66,0,0,0-25.09-7.59c-1,.16-.54,1.6.4,1.45Z"/><path d="M250.65,352.75l-12.83-2.23c-.94-.16-1.35,1.28-.39,1.45l12.82,2.23c.95.16,1.35-1.28.4-1.45Z"/><path d="M249,339.17a12.49,12.49,0,0,0-23.66-6.93c-.43.86.87,1.63,1.29.76a11,11,0,0,1,20.87,6.17c-.11.95,1.39.95,1.5,0Z"/><path d="M180,394a7.67,7.67,0,0,0-8,3.73,7.56,7.56,0,0,0,1.43,8.82c2.37,2.3,5.87,2.46,8.82,1.28A16.7,16.7,0,0,0,190,401c2.4-3.79,4.1-8.06,7.4-11.2.7-.67-.36-1.73-1.06-1.06-5.61,5.33-7,14.92-14.82,17.83-3.62,1.33-7.77,0-8.71-4a5.89,5.89,0,0,1,6.75-7c.95.16,1.35-1.29.4-1.45Z"/><path d="M258.07,346.53a383.36,383.36,0,0,0-75.42,83.52q-8.88,13.33-16.61,27.37c-.47.85.82,1.61,1.29.76a382.05,382.05,0,0,1,68.26-89.52q11.32-11,23.54-21.07c.75-.61-.32-1.67-1.06-1.06Z"/><path d="M168.77,464a91.49,91.49,0,0,0,60,30c1,.08,1-1.42,0-1.5a90.55,90.55,0,0,1-48.19-19.42A89.1,89.1,0,0,1,169.83,463c-.64-.72-1.7.34-1.06,1.06Z"/><path d="M262.58,345.48c14.66-1.52,29.5,5.12,38.73,16.5a41,41,0,0,1,6.29,10.75c.35.88,1.8.5,1.44-.4-5.58-14.17-18.76-24.72-33.62-27.71a42.27,42.27,0,0,0-12.84-.64c-1,.09-1,1.59,0,1.5Z"/><path d="M309.51,373.93l-48.66,63.38-13.69,17.82c-.59.77.72,1.51,1.3.76l48.66-63.38,13.69-17.82c.59-.77-.72-1.52-1.3-.76Z"/><path d="M246.93,458c11.12-.23,17.95-10.41,23.79-18.5,3.14-4.35,6.56-8.79,11.19-11.63a17.24,17.24,0,0,1,14.45-1.81,17.92,17.92,0,0,1,11.57,10.84c.32.91,1.77.52,1.45-.4-3.19-9.07-13.71-14.74-23-12.2-11.09,3-16.18,14.6-23,22.64-4.19,4.89-9.61,9.42-16.36,9.56a.75.75,0,0,0,0,1.5Z"/><path d="M229.93,493.78l14.42-20.85c.55-.79-.75-1.54-1.29-.75L228.64,493c-.55.8.75,1.55,1.29.76Z"/><path d="M244.62,473c4.79,1.34,9.78.05,13.92-2.53,4.5-2.79,7.79-7,10.73-11.33s5.72-9.1,9.46-13c3.37-3.5,7.77-6.55,12.78-6.75,4.76-.2,10,2,11.78,6.74a.76.76,0,0,0,1.37.18l4.58-8.65c.45-.86-.84-1.61-1.29-.76l-4.58,8.65,1.37.18a12.22,12.22,0,0,0-9-7.44,16.87,16.87,0,0,0-13,2.55c-9.43,6.05-13,17.33-20.76,25-4.38,4.32-10.75,7.45-17,5.71a.75.75,0,0,0-.4,1.45Z"/><path d="M300.73,492.69,294,464.28c-.46-1.93-1.41-4.51-.35-6.39,1-1.71,3.21-2,5-2.08,4.8-.29,9.62-.43,14.43-.65l29.3-1.31c4.67-.21,9.4-.65,14.08-.59a10.37,10.37,0,0,1,4.88,1c2,1.1,2.45,3.2,2,5.32a49.52,49.52,0,0,1-2.56,7.15l-2.94,7.64-6,15.5c-.35.9,1.1,1.29,1.45.4l5.79-15L362,467.8c.89-2.32,1.94-4.64,2.62-7a7.35,7.35,0,0,0-.34-5.8,6.31,6.31,0,0,0-3.62-2.65,16.07,16.07,0,0,0-5.17-.55c-2.54.06-5.07.22-7.61.33l-32.28,1.45-15.89.71c-3.43.16-7.54.81-7.91,5-.22,2.45.71,5,1.26,7.36l2.11,8.91,4.16,17.57c.23.94,1.67.54,1.45-.4Z"/><path d="M295,492.93a5.58,5.58,0,1,0-7.2,8.51c2.84,2.25,7.12,1.72,10.49,1.7L312.9,503l29-.21c4.63,0,9.33.18,13.95-.22,3.75-.32,7.53-1.43,10-4.46,2.12-2.62,2.87-6.55.38-9.19-2-2.16-5.67-2.91-7.93-.69-.69.68.37,1.74,1.06,1.06,1.88-1.85,5-.66,6.31,1.33,1.7,2.63-.08,6-2.18,7.78-2.74,2.33-6.56,2.7-10,2.8-3.69.1-7.39.06-11.08.09q-23.29.17-46.6.33c-3,0-7.77.07-8.54-3.72a4.09,4.09,0,0,1,6.67-3.94c.73.62,1.8-.43,1.06-1.06Z"/><path d="M306.57,494.5l35.87-1.18c1,0,1-1.53,0-1.5L306.57,493c-1,0-1,1.53,0,1.5Z"/><path d="M301.56,507.43c-3.19,8.7-6.52,20,1.41,27.33,3.13,2.89,7.29,4.44,11.38,5.39a70.1,70.1,0,0,0,15.41,1.69,76.51,76.51,0,0,0,18.33-2.17c.93-.23.54-1.68-.4-1.45a73.92,73.92,0,0,1-30.49,1,29.76,29.76,0,0,1-11.31-4,14.44,14.44,0,0,1-6.34-11.28c-.4-5.56,1.57-10.91,3.46-16.05.33-.91-1.12-1.3-1.45-.4Z"/><path d="M359.46,509.12a15.88,15.88,0,0,1-9.94,22.13.75.75,0,0,0,.4,1.44,17.38,17.38,0,0,0,10.84-24.32c-.41-.88-1.7-.12-1.3.75Z"/><path d="M366.64,516.74a3.78,3.78,0,0,1,4.49,1.83,4.79,4.79,0,0,1-.44,5.35c-2.82,4-8.24,3.9-12.6,3.77-1,0-1,1.47,0,1.5,4.31.13,9,.12,12.45-2.89,2.8-2.46,3.83-6.68,1-9.56a5,5,0,0,0-5.35-1.44c-.89.35-.5,1.8.4,1.44Z"/><path d="M364.76,512.77a6.17,6.17,0,0,1,6.73-1,7,7,0,0,1,4.13,6.21c.37,6.15-4.91,10.35-10.38,11.73-3.87,1-7.91.77-11.85.46-1-.08-1,1.42,0,1.5,7.19.57,15.67.43,20.82-5.48,3.94-4.52,4.29-12.92-1.93-15.7a7.71,7.71,0,0,0-8.58,1.25c-.68.68.38,1.75,1.06,1.07Z"/><path d="M313.52,541.49a3.74,3.74,0,0,0-5.52.8.76.76,0,0,0,.12.91A32.86,32.86,0,0,0,348,545.83a33.25,33.25,0,0,0,4.39-3.55,30.42,30.42,0,0,0,2.13-2.27c.75-.88.77-1.11.37-2.22-.33-.9-1.78-.51-1.45.4l.32.88.2-.72a31,31,0,0,1-44.82,3.79l.11.91a2.21,2.21,0,0,1,3.17-.5c.74.61,1.81-.45,1.06-1.06Z"/><path d="M135.42,475.07l-6.25,59.1-1.79,16.88c-.1,1,1.4,1,1.5,0l6.26-59.1,1.78-16.88c.11-1-1.39-.95-1.5,0Z"/><path d="M385.34,227.55l21,18.86c.71.64,1.78-.42,1.06-1.06l-21-18.86c-.72-.64-1.78.42-1.06,1.06Z"/><path class="cls-1" d="M438.77,280.9C449,300,458,319,468,339c2,4,2,8,3,11,9,16,13,33,17,51,1,3,0,6-1,9-5,13-17,18-29,24-16,7-34,11-51.12,14.08"/><path d="M394.14,373.71q5.7,34.31,8.8,69t3.58,69.38q.27,19.53-.29,39a.75.75,0,0,0,1.5,0q1-34.86-.65-69.72t-5.91-69.46q-2.39-19.37-5.59-38.6c-.15-.95-1.6-.54-1.44.4Z"/><path class="cls-1" d="M110.12,556.09,536,555.76"/><path d="M444.33,441.34a437.61,437.61,0,0,1,1,82.45q-1,11.73-2.58,23.42c-.12.94,1.32,1.35,1.45.4a438.65,438.65,0,0,0,3.51-82.83q-.63-11.75-1.88-23.44c-.1-.95-1.6-1-1.5,0Z"/><path d="M314.31,444.58l9.26,6.9a.74.74,0,0,0,1-.26.76.76,0,0,0-.27-1l-9.25-6.9a.76.76,0,0,0-1,.27.77.77,0,0,0,.27,1Z"/><path d="M307.31,446.67l5.39,5.39a.75.75,0,0,0,1.06-1.06l-5.39-5.39a.75.75,0,0,0-1.06,1.06Z"/><path d="M338.72,425.71a49.49,49.49,0,0,0,4.82-36.81,48.14,48.14,0,0,0-8-17c-3.93-5.28-9.51-9.1-13.27-14.49a14.07,14.07,0,0,1-2.82-9.11,14.9,14.9,0,0,1,4.42-9c5.36-5.56,13-7.09,20.39-8.15,7-1,14.18-1.8,20.43-5.36a20.53,20.53,0,0,0,7-6.37,22.8,22.8,0,0,0,3.33-9.63c1-7.62-.65-15.35.59-22.95a18.16,18.16,0,0,1,4.33-9.73,13.11,13.11,0,0,1,8.3-4.27,8.65,8.65,0,0,1,4.58.92c.86.43,1.62-.86.76-1.3-5.58-2.82-12.05.13-15.68,4.73-4.69,6-4.38,14.26-4.12,21.43.26,7.35.51,15.74-4.62,21.66-4.64,5.34-11.91,7.36-18.63,8.46-7.71,1.25-16,1.59-22.92,5.69-5.31,3.17-10,8.79-9.71,15.28.27,6.76,5.51,11.68,10.06,16.07a49.8,49.8,0,0,1,11.56,16,48.87,48.87,0,0,1,.11,38.82,44.08,44.08,0,0,1-2.23,4.32.75.75,0,0,0,1.29.76Z"/><path d="M398,266.14c7.2.15,13.42-4.47,17-10.44,4.49-7.44,4.35-16.48,2.49-24.71-3.76-16.7-15.91-33.77-9.2-51.33a21.17,21.17,0,0,1,6.43-9.08c3.44-2.75,7.81-3.91,11.5-6.23,3-1.86,5.76-4.75,6.25-8.36.58-4.18-2.29-7.43-4.37-10.73-4.37-6.92-5-15.56-3-23.38a38.68,38.68,0,0,1,13.18-20c14.22-11.76,33.21-14.27,51-15.37,2.39-.14,4.77-.27,7.16-.39,1,0,1-1.55,0-1.5-18,.94-36.87,2-52.69,11.58a45.68,45.68,0,0,0-16.55,16.41,35.93,35.93,0,0,0-4.34,22.49,28.16,28.16,0,0,0,4,10.9c2.19,3.46,5.48,7.07,3.74,11.44-1.6,4-5.75,6.15-9.46,7.87s-7.24,3.5-9.95,6.63c-4.75,5.46-6.55,13-6.28,20.14.35,9.19,4,17.85,7.14,26.35,3.3,8.9,6.48,18.59,4.79,28.19-1.3,7.38-6.22,14.74-13.55,17.21a15.66,15.66,0,0,1-5.26.79c-1,0-1,1.47,0,1.5Z"/><path d="M504.93,85.73c11.37-.35,23.11-.29,33.92,3.71,9.28,3.44,17.69,10.46,21.18,19.92a23.4,23.4,0,0,1,.78,14.23,29.5,29.5,0,0,1-7.82,13,47.12,47.12,0,0,1-13.38,9c-4.89,2.31-10.07,3.76-15,5.85-3.59,1.51-7.53,3.73-8.86,7.64-1.48,4.31,1.22,8.71,5,10.82,4.82,2.71,10.85,1.93,16.09,1.22,6-.82,12-2.13,18-2.86,5.47-.67,11.14-.94,16.54.36a29.6,29.6,0,0,1,12.15,5.95,18.61,18.61,0,0,1,6.63,10.8,18.16,18.16,0,0,1-2.9,12.88c-5.43,8.52-15.05,13.56-23.76,18A225.69,225.69,0,0,1,530.53,230q-4.15,1.35-8.36,2.55c-.56.16-.8,1.1-.18,1.37,6.92,3,9.37,11.66,7.18,18.48-2.66,8.25-11.36,13.07-19.4,14.61-10.75,2.07-21.68-.62-32.39-1.63-9.41-.89-18.92-.31-27.3,4.44A37.63,37.63,0,0,0,433,290.4c-.31.92,1.14,1.31,1.44.4a36,36,0,0,1,16.21-19.61c9-5.16,19.26-5.2,29.3-4.06,10.68,1.22,21.74,3.59,32.39.81,7.75-2,15.57-7.09,18.21-15,2.46-7.41-.27-17.06-7.82-20.32l-.18,1.37a228.58,228.58,0,0,0,33.79-12.57c5.42-2.51,10.79-5.19,15.94-8.2a58.46,58.46,0,0,0,11.55-8.53,26.67,26.67,0,0,0,7.32-11.46,18.09,18.09,0,0,0-.95-12.48c-3.7-8-12.76-12.83-21.19-14.1-12.17-1.83-24.22,2.34-36.25,3.44-5.4.49-12.22.19-15.13-5.24-2.58-4.84,1.23-8.87,5.32-11,4.61-2.4,9.81-3.65,14.6-5.69a55.05,55.05,0,0,0,14.34-8.52c7.49-6.42,12.5-15.91,10.83-26-1.58-9.48-8.44-17.58-16.53-22.4-9.73-5.79-21.5-7.07-32.6-7.16-2.9,0-5.79,0-8.68.13-1,0-1,1.53,0,1.5Z"/><path d="M430.8,295.38l-7.69,21.25c-2.23,6.17-4,13.18-8.79,17.95-8,8-20.62,8-31.14,9.2-9.54,1.1-20.94,3.77-26.26,12.64-6.75,11.26,1,24.18.87,36a33.56,33.56,0,0,1-20,29.8c-.87.37-.49,1.82.4,1.45a35.19,35.19,0,0,0,20.24-24.22c1.37-5.88.8-11.68-.39-17.53-1.3-6.4-3.34-13.18-1.84-19.72,2.62-11.38,14.92-15.29,25.13-16.72,10.69-1.51,22.74-1,31.79-7.9,5.8-4.42,8.06-11.21,10.45-17.82l8.69-24c.32-.91-1.12-1.3-1.45-.4Z"/><path d="M297.34,120.12a18.43,18.43,0,0,1,17.68,2.3c.78.58,1.53-.73.76-1.29a19.8,19.8,0,0,0-18.84-2.46c-.89.35-.5,1.81.4,1.45Z"/><path d="M265.08,121.83a34.87,34.87,0,0,0-25.25,3.35c-.84.47-.09,1.76.76,1.3a33.2,33.2,0,0,1,24.09-3.2.75.75,0,0,0,.4-1.45Z"/></svg>