<svg id="レイヤー_2" data-name="レイヤー 2" xmlns="http://www.w3.org/2000/svg" viewBox="0 0 600 600"><defs><style>.cls-1{fill:none;stroke:#000;stroke-miterlimit:10;stroke-width:2px;}</style></defs><path class="cls-1" d="M534.19,100.51l-46.69,398s-97-56.39-187.5,8.3c0,0-100.5-71.3-196.5-22.3,0,0-26.07-325.46-39.65-383.31C62.62,96,61.5,92.91,60.5,92.5c-3.33-1.39,113-50,230,26l9.5,6.8S419.5,45.5,522.5,89.5"/><path class="cls-1" d="M290.87,506.8a165.41,165.41,0,0,0-59.94-24.86c-29.23-6-53.58-3.72-63.93-4.94-17-2-70,25-70,25l-7-10S80,392,81,388s-7-69-8.27-73.5S64,236,65,222,38,113,38,113c5-9,21-13,21-13"/><path class="cls-1" d="M42,126.73,27,135S62.86,240.62,60.43,256.31s-1.33,76.14.12,81.41S74,394,74,403s7.6,112,12.3,111S146,489,159,487l39.56-6.1"/><path class="cls-1" d="M555,130.42h17.5L555,249s-8,109-12,113-28,124-28,124l-16,44s-78-36-96-35-62,4-68,7-35,4.8-35,4.8S372,476,421,491s64,23,64,23h9.4s37.21-187,33.4-199.5S550,230,548,204s7-89,7-89l-20.81-4.81"/><path class="cls-1" d="M38,118.34,11,145c25,10,41,133,41,133s5,79,8.43,83.84S78.72,530,78.72,530C102.44,507,131,509,192,496s94.51,27,94.51,27H318s15-22,72-20,107,39,107,39,25.38-20.22,37.19-66.61S563,364,563,364s15-92,16-109-1-79.3,0-85.15S586,133,586,131s-31.71-10.43-31.86-9.71"/><path d="M198.76,481.84a106.2,106.2,0,0,1,18-.88c1.29.05,1.29-1.95,0-2a108.29,108.29,0,0,0-18.53,1c-1.27.17-.73,2.1.53,1.93Z"/><path d="M217.06,481l4.06.17a1,1,0,0,0,0-2l-4.06-.17a1,1,0,0,0-1,1,1,1,0,0,0,1,1Z"/><path d="M290.72,507.77a22.19,22.19,0,0,0,11.27.29c1.25-.3.72-2.23-.53-1.93a20.08,20.08,0,0,1-10.21-.28,1,1,0,0,0-.53,1.92Z"/><path d="M302.45,507.83l1.43-.2a.92.92,0,0,0,.34-.18.77.77,0,0,0,.26-.28.85.85,0,0,0,.12-.38.74.74,0,0,0,0-.39,1,1,0,0,0-.46-.6l-.24-.1a1,1,0,0,0-.53,0l-1.43.2a.75.75,0,0,0-.34.18.87.87,0,0,0-.26.28.85.85,0,0,0-.12.38.74.74,0,0,0,0,.39,1,1,0,0,0,.46.6l.24.1a1,1,0,0,0,.53,0Z"/><path d="M298.87,129.37l1.81,46.55c.05,1.28,2.05,1.29,2,0l-1.81-46.55c-.05-1.29-2.05-1.29-2,0Z"/><path d="M304.27,205l-.59,77.42-.6,77.42-.33,43.45a1,1,0,0,0,2,0l.59-77.42.6-77.42.33-43.45a1,1,0,0,0-2,0Z"/><path d="M301,442l-2.12,62.47c0,1.29,2,1.29,2,0L303,442c0-1.29-2-1.29-2,0Z"/><path d="M120.93,188.42a79,79,0,0,0,7.16-34.86h-2a78.61,78.61,0,0,0,1.85,14.58c.75,3.18,2.79,6.78,6.64,6,4.41-.9,5.81-6.18,7.25-9.78q2.83-7.12,5.36-14.37c.37-1.05-1.38-1.81-1.83-.77-1.64,3.84-3.38,7.85-3.25,12.11.1,3.27,1.29,6.71,4,8.76,4.49,3.46,11.89,1.74,14.33-3.4.55-1.15-1.17-2.17-1.72-1-2,4.13-8.06,5.69-11.63,2.65-5.42-4.61-2.24-12.8,0-18.1l-1.83-.77q-2.06,5.88-4.31,11.69c-.75,1.94-1.51,3.87-2.31,5.79s-1.59,3.86-3.39,4.84c-3.78,2-5.14-2.81-5.66-5.51a87.62,87.62,0,0,1-1.5-12.71,1,1,0,0,0-2,0,76.8,76.8,0,0,1-6.88,33.85c-.53,1.16,1.19,2.18,1.72,1Z"/><path d="M164.1,163.4a4.16,4.16,0,0,0,4.08,3.06,4.21,4.21,0,0,0,4.12-3.5,5.14,5.14,0,0,0-2.19-5.32,6.44,6.44,0,0,0-6.22-.37c-3.94,1.81-5.54,6.57-4.64,10.59a9.18,9.18,0,0,0,8,7.38c4.2.32,8.7-2.65,9.4-6.93.2-1.26-1.72-1.8-1.93-.53a6.8,6.8,0,0,1-5.49,5.34,6.55,6.55,0,0,1-7-3.21,8.18,8.18,0,0,1-.19-8.24,5.89,5.89,0,0,1,4-3,4.07,4.07,0,0,1,3.93,1.45c.83,1.19.72,3.26-.62,4.05a2.25,2.25,0,0,1-3.25-1.33c-.27-1.25-2.2-.72-1.92.54Z"/><path d="M179.17,159.4c-1.29,3.54-2.5,7.51-.62,11.08a5.72,5.72,0,0,0,7.47,2.74,4.68,4.68,0,0,0,2.46-3.18c.26-1,.21-3.21,1.34-3.65.93-.37,2.46.73,3.25,1.13l3.05,1.54,6.53,3.29c1.14.58,2.16-1.15,1-1.73-3.75-1.88-7.45-3.9-11.26-5.67-1.31-.61-2.79-1-4,0a5,5,0,0,0-1.53,3.22c-.27,1.34-.44,2.74-1.85,3.34a3.55,3.55,0,0,1-4-.95c-2.72-3-1.11-7.38.07-10.62.44-1.21-1.49-1.73-1.93-.53Z"/><path d="M210.09,167.23a9.31,9.31,0,0,0,17.64-3.89l-1.71.71a38.76,38.76,0,0,0,27.7,10.56c1.29,0,1.29-2,0-2a36.8,36.8,0,0,1-26.29-10,1,1,0,0,0-1.7.7,7.31,7.31,0,0,1-13.91,2.88c-.59-1.14-2.32-.13-1.73,1Z"/><path d="M144.12,241.69,194.29,235l14.26-1.91-.5-1.86-20.66,10.07c-1.15.56-.14,2.29,1,1.73l20.66-10.08c.85-.41.48-2-.51-1.86l-50.17,6.73-14.26,1.91c-1.26.17-1.27,2.17,0,2Z"/><path d="M132.53,276.43q24.08-6,48.46-10.54,24.62-4.58,49.47-7.67,13.88-1.71,27.8-3c1.27-.12,1.28-2.12,0-2q-24.84,2.24-49.51,5.94t-49.27,8.95q-13.8,2.94-27.48,6.35a1,1,0,0,0,.53,1.93Z"/><path d="M130.73,319.74a319.15,319.15,0,0,1,77.39-18.68q11.24-1.26,22.54-1.71l-.5-1.87-25.78,13c-1,.48-.4,1.79.51,1.86l43.75,3.61c1.29.1,1.28-1.9,0-2l-43.75-3.61.5,1.86q12.9-6.46,25.78-13a1,1,0,0,0-.51-1.86,321.33,321.33,0,0,0-79,13.21q-10.83,3.24-21.41,7.26c-1.19.45-.67,2.38.53,1.92Z"/><path d="M134.07,387.55c17.17-5.61,34.35-11.2,51.79-15.91a349.43,349.43,0,0,1,53-10.54,231.59,231.59,0,0,1,30.25-1.41,1,1,0,0,0,0-2,256,256,0,0,0-53.68,5,499.66,499.66,0,0,0-52.59,13.57c-9.8,3-19.56,6.2-29.31,9.38-1.22.4-.69,2.33.53,1.93Z"/><path d="M367.35,182.84a330.41,330.41,0,0,1,81.34-12.57q11.71-.33,23.44.18c1.29.06,1.28-1.94,0-2a332.18,332.18,0,0,0-82.56,6.82q-11.47,2.41-22.75,5.64a1,1,0,0,0,.53,1.93Z"/><path d="M339.54,227.16A508.53,508.53,0,0,1,451.63,211q15.9-.51,31.8,0c1.29,0,1.29-2,0-2a512.53,512.53,0,0,0-113.17,9.15q-15.74,3-31.25,7.09a1,1,0,0,0,.53,1.93Z"/><path d="M344.6,272.58l63.31-15.07,7.73-1.84c2.51-.59,5.25-1.29,7.8-.49,1.88.59,3.68,2.15,3.67,4.26,0,1.79-1.39,3.2-2.77,4.16a24,24,0,0,1-5.5,2.63l-7.7,2.86L396,274.73l-34.31,12.75a1,1,0,0,0,.27,2l66.11-.11,18.89,0a1,1,0,0,0,0-2l-66.11.12-18.89,0,.26,2,32.68-12.14,16.33-6.08,8.4-3.12a26.7,26.7,0,0,0,5.47-2.55c3-2,5.39-5.59,3.18-9.11-2.64-4.21-8-3.85-12.22-2.89-11.28,2.58-22.52,5.36-33.78,8l-38.18,9.08c-1.25.3-.72,2.23.53,1.93Z"/><path d="M328.53,340.3q25.17-6.66,50.88-11t51.88-6.23Q446,322,460.8,321.73a1,1,0,0,0,0-2q-26.26.54-52.41,3.51-26,3-51.65,8.33-14.44,3-28.74,6.8a1,1,0,0,0,.53,1.93Z"/><path d="M358.34,381.31a38.61,38.61,0,0,1,18.89-4.07,37.36,37.36,0,0,1,9.38,1.58,94.7,94.7,0,0,1,9.73,3.87c12.39,5.32,25.63,6.64,39,6.08,7.6-.32,15.16-1.17,22.71-2,1.26-.15,1.28-2.15,0-2-13.64,1.58-27.51,3.14-41.22,1.46a72.05,72.05,0,0,1-19.91-5.41,98.44,98.44,0,0,0-9.37-3.76,39.63,39.63,0,0,0-9.47-1.74,40.74,40.74,0,0,0-20.75,4.3c-1.15.58-.13,2.31,1,1.73Z"/></svg>