<svg xmlns="http://www.w3.org/2000/svg" width="1039.56" height="651.046" viewBox="0 0 1039.56 651.046"><path d="M1282.18,72.211l84.91-56.859-74.3,109.928,139.5-89.459L1282.18,201.093,1489.148,35.821,1282.18,260.985,1551.314,25.966,1292.793,312.537l316.9-276.716L1314.021,360.3,1674.13,25.966l-373,405.6,439.713-405.6-462.457,503.4L1801.5,35.821,1301.133,576.365,1867.453,40.37,1333.732,612l592.1-571.627-509.46,556.464,564.8-546.608s-507.565,549.451-503.016,546.608S2046.749,45.108,2046.749,45.108L1539.563,600.814,2110.432,45.108,1609.69,600.814,2171.84,45.108,1669.2,611.428l561.013-561.2L1760.178,590.2,2255.992,94.387,1817.037,590.2l445.02-441.229L1884.51,590.2l377.547-376.788L1951.984,590.2l304.008-307.8L2015.666,590.2l246.391-243.358L2081.623,590.2l180.434-166.029L2143.789,596.834l118.268-93.06-54.585,103.863" transform="translate(-1247.497 9.648)" fill="none" stroke="#707070" stroke-linecap="round" stroke-linejoin="round" stroke-width="50"/></svg>