<svg id="レイヤー_1" data-name="レイヤー 1" xmlns="http://www.w3.org/2000/svg" viewBox="0 0 60 60"><defs><style>.cls-1{fill:#630;}</style></defs><path class="cls-1" d="M44.66,25.34a4.31,4.31,0,0,0-2.28.16c0,.68,0,1.4-.07,2.19-.13,5.09.24,4.34,0,5.88-.07.47-.18.92-.29,1.37l.29-.19c2.42-1.6,5.24-4.8,4.7-7.06A3.5,3.5,0,0,0,44.66,25.34Z"/><path class="cls-1" d="M31.72,18.28c-1.83-.11-2.3,0-4.7,0-3.92,0-4.2-.3-5.88,0s-4.67,1.16-4.71,2.35S19.62,22.88,20,23c2.15.65,3.08.2,7.06,0,4.93-.25,6.61.27,8.23-1.18.08-.06,1.53-1.4,1.18-2.35S34.32,18.44,31.72,18.28Z"/><path class="cls-1" d="M49.83,8.55c-5.68-5-12.36-5.59-17-6-3.72-.33-10.45-.84-17,3a26.18,26.18,0,0,0-6,5,29.51,29.51,0,0,0-6,11,32,32,0,0,0-2,14c.29,2.93,1,9.63,6,15,7.12,7.58,17.92,7.16,22,7a36.8,36.8,0,0,0,7-1c2.46-.6,8.41-2,13-6,7.24-6.25,7.82-16,8-19S58.73,16.37,49.83,8.55ZM47,34.75c-2.24,2.55-5.75,5.28-6.92,4.77A32.51,32.51,0,0,1,37.61,43c-2,2.43-2.61,3.19-3.53,3.53-1.3.48-2.19.18-4.71,0-4-.28-4.3.31-5.88,0-4.43-.87-6.87-6.44-8.23-9.41-.31-.68-1-4-2.36-10.58-.49-2.39-.81-4.08,0-5.89a8.38,8.38,0,0,1,3.53-3.52c.73-.46,2.67-1.59,7.06-2.36,1.65-.28,2.12-.25,12.94,0,2.16.05,3.65.09,4.7,1.18.4.41.92,1.16,1.18,4.7,0,.44,0,.85.07,1.24.41,0,.8-.05,1.11-.06A6.77,6.77,0,0,1,48.19,23a6.51,6.51,0,0,1,2.35,4.7C50.71,30.55,48.91,32.6,47,34.75Z"/></svg>