<svg id="レイヤー_1" data-name="レイヤー 1" xmlns="http://www.w3.org/2000/svg" viewBox="0 0 56.19 55.29"><defs><style>.cls-1{fill:#fff;}.cls-2{fill:#630;}</style></defs><path class="cls-1" d="M57.25,30c0,14.65-7.87,25.15-34.63,26.48C1,57.6-2.9,10.25,22.7,3.43,47.08,2.33,57.27,15.35,57.25,30Z" transform="translate(-1.73 -2.33)"/><path class="cls-2" d="M44.66,25.34a4.31,4.31,0,0,0-2.28.16c0,.68,0,1.4-.07,2.19-.13,5.09.24,4.34,0,5.88-.07.47-.18.92-.29,1.37l.29-.19c2.42-1.6,5.24-4.8,4.7-7.06A3.5,3.5,0,0,0,44.66,25.34Z" transform="translate(-1.73 -2.33)"/><path class="cls-2" d="M31.72,18.28c-1.83-.11-2.3,0-4.7,0-3.92,0-4.2-.3-5.88,0s-4.67,1.16-4.71,2.35S19.62,22.88,20,23c2.15.65,3.08.2,7.06,0,4.93-.25,6.61.27,8.23-1.18.08-.06,1.53-1.4,1.18-2.35S34.32,18.44,31.72,18.28Z" transform="translate(-1.73 -2.33)"/><path class="cls-2" d="M31.76,9.1" transform="translate(-1.73 -2.33)"/><path class="cls-2" d="M49.83,8.55c-5.68-5-12.36-5.59-17-6-3.72-.33-10.45-.84-17,3a26.18,26.18,0,0,0-6,5,29.57,29.57,0,0,0-6,11,32.12,32.12,0,0,0-2,14c.29,2.93,1,9.63,6,15,7.12,7.58,17.92,7.16,22,7a36.8,36.8,0,0,0,7-1c2.46-.6,8.41-2,13-6,7.24-6.25,7.82-16,8-19S58.73,16.37,49.83,8.55ZM36.41,7.39a1,1,0,0,1,1.23-.7h0l3.19.5,1.54.25A2.27,2.27,0,0,1,43.62,8a1.52,1.52,0,0,1,.19,1.84,4.43,4.43,0,0,1-1.09,1.07l-2,1.7a.69.69,0,0,1,.21.88.67.67,0,0,1-.91.23l-.81-.55a.72.72,0,0,1-.33-.21V12.9l-1.56-1.1a.69.69,0,0,1-.24-.91.67.67,0,0,1,.9-.24l1.09.79L41,9.78l.53-.45-.42-.07L39.79,9l-2.64-.43a1,1,0,0,1-.75-1.2h0Zm-4.72,1.8h0V9.13l.16-.22a9.43,9.43,0,0,0,.64-1,1,1,0,0,1,1.73,1,11.15,11.15,0,0,1-3.69,4,1,1,0,0,1-1.37-.36h0a1,1,0,0,1,.36-1.37h0l.51-.35h0l.08-.06.23-.19a11,11,0,0,0,.85-.82Zm-3-2.9A.59.59,0,0,1,28.94,6h0a.59.59,0,0,1,.37,0,7.05,7.05,0,0,1,1.18.38.52.52,0,0,1,.25.14l.08.11a.62.62,0,0,1,.06.42.56.56,0,0,1-.25.33.59.59,0,0,1-.43,0A6.36,6.36,0,0,0,29,7a.54.54,0,0,1-.32-.25.55.55,0,0,1,0-.5ZM28,8.43a.59.59,0,0,1,.25-.33.61.61,0,0,1,.42,0,4,4,0,0,1,.5.09,3,3,0,0,1,.58.18.55.55,0,0,1,.2.74h0a.57.57,0,0,1-.32.25.28.28,0,0,1-.22,0,.36.36,0,0,1-.2-.06h.1a7.21,7.21,0,0,0-.92-.21A.51.51,0,0,1,28,8.52l0-.1Zm-6.8-.86a9.09,9.09,0,0,1,.7-1.48.55.55,0,0,1,.57-.26h.64a16.93,16.93,0,0,1,2,.3,3.1,3.1,0,0,1,.88.32,1.05,1.05,0,0,1,.68,1.28l-1.84,5.15a1.11,1.11,0,0,1-1.32.76,1.07,1.07,0,0,1-.76-1.31h0L24.4,7.88l-1.76-.36h0L22.14,9h0a.09.09,0,0,0,0,.07V9h0v.1a.56.56,0,0,1-.54.55.41.41,0,0,1-.22,0,.55.55,0,0,1-.44-.53,4.61,4.61,0,0,1,.27-1.56ZM13.29,9.44a1,1,0,0,1,1.37.36h0l.72,1.56a.76.76,0,0,1,.3,0h-.14a13.35,13.35,0,0,0,2,0,.69.69,0,0,1,.67.68v.07a.43.43,0,0,1,0,.16v.06l-.05.07a.71.71,0,0,1-.55.31H16l.82,1.67a1,1,0,0,1-1.73,1L13,10.79a1,1,0,0,1,.32-1.36Zm8.94,43.75-.06.15a.89.89,0,0,1-1,.74l-4.44-1a.93.93,0,0,1-.78-1,.9.9,0,0,1,1-.79h0l3.78.9c.22-.87.45-1.73.67-2.6L18,48.94a.88.88,0,0,1-.79-.95.87.87,0,0,1,.94-.79h0L22.5,48h.12a.87.87,0,0,1,.72,1h0Zm6.6-1.1H26.29a.51.51,0,0,1-.42-.22.57.57,0,0,1-.22-.42.55.55,0,0,1,.55-.55,18.7,18.7,0,0,1,2.59.1H29a.56.56,0,0,1,.48.61.55.55,0,0,1-.61.48ZM37.37,54a9,9,0,0,1-2.72.42,4,4,0,0,1-2.5-1c-1.38-1.28-1.32-3.28-1.16-5a1,1,0,0,1,2,0c0,.4-.09.8-.1,1.21h0l2.57-.42a.66.66,0,0,1,.78.45.64.64,0,0,1-.46.77L33,51v.12a.88.88,0,0,0,.07.23h0a3.38,3.38,0,0,0,.24.41h0l.14.14.07.06.32.25.11.06.14.06a2.59,2.59,0,0,1,.4.09H35.7c.38-.08.77-.18,1.15-.28a1,1,0,1,1,.53,1.93Zm4.79-4.29-2.71.54a.55.55,0,0,1-.62-.36.55.55,0,0,1,.36-.69h0l2.72-.54a.55.55,0,1,1,.3,1.05h-.05Zm4.82-15c-2.24,2.55-5.75,5.28-6.92,4.77a32.51,32.51,0,0,1-2.48,3.46c-2,2.43-2.61,3.19-3.53,3.53-1.3.48-2.19.18-4.71,0-4-.28-4.3.31-5.88,0C19,45.6,16.59,40,15.23,37.06c-.31-.68-1-4-2.36-10.58-.49-2.39-.81-4.08,0-5.89a8.22,8.22,0,0,1,3.53-3.52c.73-.46,2.67-1.59,7.06-2.36,1.65-.28,2.12-.25,12.94,0,2.16,0,3.65.09,4.7,1.18.4.41.92,1.16,1.18,4.7a7.08,7.08,0,0,0,.07,1.24,6.29,6.29,0,0,0,1.11-.06A6.74,6.74,0,0,1,48.16,23a6.51,6.51,0,0,1,2.35,4.7c.2,2.9-1.6,5-3.5,7.1Z" transform="translate(-1.73 -2.33)"/></svg>