<svg xmlns="http://www.w3.org/2000/svg" xmlns:xlink="http://www.w3.org/1999/xlink" width="495" height="369.479" viewBox="0 0 495 369.479"><defs><clipPath id="b"><rect width="495" height="369.479"/></clipPath></defs><g id="a" clip-path="url(#b)"><g transform="translate(-23.085 -13.441)"><path d="M89.691,192.374,78.6,171.563l-11.409,5.6-17.642-5.6-10.988,2.219-4.33-6.021H18.593L0,152.124l13.522-24.509L8.874,121.7l4.648-6.76V90.43l5.072-14.367,15.635-3.8v-9.3L62.117,46.9l5.072,3.8L78.6,46.9v-9.3l20.283-5.07,17.326,5.07,10.986-9.3,20.283,22.4,10.565,2.114,5.493-5.917h6.339l13.1-14.367H197.34l7.184,5.07,15.634-9.3V12.677l14.791-2.536L242.555,0l14.127,6.647,1.974,5.2L239.9,54.11l6.751,25.254s-7.251,3.251-6.751,5,0,10.751,0,10.751l4.251,2.75v7.251s8.751,9.752,11.752,8.5,11.5-4,11.5-4l-2,11-9.5,3,2.75,9-6.751,10.5,2.75,5.75h4l2.251,5.5-14.253,7.252-6.751-3.251-10.5,10h-17l-5,7.252-13-3-6.251,7.5-5.751-1.75L165.7,189.628,154.978,194.8,143.99,179.486l-11.409,2.535-7.607,15.636h-8.767l-4.965,5.7Z" transform="translate(26.129 38.077)" fill="rgba(84,41,18,0.98)"/><path d="M111.242,204.362a1,1,0,0,1-.454-.109L89.237,193.265a1,1,0,0,1-.428-.421L78.17,172.887l-10.541,5.173a1,1,0,0,1-.743.055l-17.4-5.52-10.734,2.168a1,1,0,0,1-1.01-.4l-4.031-5.605H18.593a1,1,0,0,1-.644-.235L-.644,152.89a1,1,0,0,1-.232-1.248l13.2-23.929-4.239-5.4a1,1,0,0,1-.038-1.184l4.472-6.5V90.43a1,1,0,0,1,.057-.333L17.65,75.73a1,1,0,0,1,.707-.639l14.872-3.618V62.963a1,1,0,0,1,.5-.867L61.618,46.038a1,1,0,0,1,1.1.067l4.652,3.489L77.6,46.184V37.608a1,1,0,0,1,.757-.97l20.283-5.071a1,1,0,0,1,.523.01l16.81,4.919,10.576-8.948a1,1,0,0,1,1.387.092L148,49.792l9.693,1.939,5.113-5.507a1,1,0,0,1,.733-.32h5.9l12.8-14.041a1,1,0,0,1,.739-.326H197.34a1,1,0,0,1,.577.183l6.654,4.7,14.588-8.673V12.677a1,1,0,0,1,.831-.986l14.4-2.469L241.755-.6a1,1,0,0,1,1.226-.3l14.127,6.647a1,1,0,0,1,.509.55l1.974,5.2a1,1,0,0,1-.021.76L240.96,54.193,247.62,79.1a1,1,0,0,1-.557,1.171c-.015.007-1.546.7-3.109,1.587-2.475,1.412-2.974,2.155-3.063,2.329.434,1.8.159,8.1.041,10.4l3.765,2.436a1,1,0,0,1,.457.84v6.863c.6.647,2.169,2.317,3.977,3.966,3.993,3.642,5.647,4.035,6.173,4.035a.578.578,0,0,0,.217-.034c3-1.252,11.231-3.917,11.579-4.029a1,1,0,0,1,1.292,1.13l-2,11a1,1,0,0,1-.683.775l-8.557,2.7,2.461,8.054a1,1,0,0,1-.115.833l-6.45,10.033,2.238,4.679h3.371a1,1,0,0,1,.926.621l2.251,5.5a1,1,0,0,1-.472,1.27l-14.253,7.252a1,1,0,0,1-.887.01l-6.129-2.951-10,9.525a1,1,0,0,1-.69.276H212.923l-4.7,6.82a1,1,0,0,1-1.048.407l-12.4-2.862-5.857,7.028a1,1,0,0,1-1.059.316l-5.3-1.612-16.3,10.983a1,1,0,0,1-.124.071L155.413,195.7a1,1,0,0,1-1.247-.318l-10.6-14.781-10.293,2.287-7.4,15.2a1,1,0,0,1-.9.563h-8.312L112,204.018A1,1,0,0,1,111.242,204.362ZM90.425,191.626,111,202.116,115.453,197a1,1,0,0,1,.754-.343h8.142l7.333-15.074a1,1,0,0,1,.682-.539l11.409-2.535a1,1,0,0,1,1.029.393l10.5,14.635,9.9-4.779,16.633-11.209a1,1,0,0,1,.85-.127l5.117,1.557,5.826-6.991a1,1,0,0,1,.993-.334l12.34,2.848,4.614-6.693a1,1,0,0,1,.823-.432H229l10.211-9.726a1,1,0,0,1,1.124-.177l6.305,3.036,12.991-6.61-1.648-4.027h-3.33a1,1,0,0,1-.9-.568l-2.75-5.75a1,1,0,0,1,.061-.972l6.5-10.112-2.615-8.558a1,1,0,0,1,.655-1.246l8.927-2.819,1.592-8.757c-2.6.857-7.689,2.558-9.834,3.452a2.552,2.552,0,0,1-.987.188c-1.7,0-4.164-1.494-7.532-4.568-2.369-2.162-4.282-4.288-4.362-4.377a1,1,0,0,1-.256-.668V98.41l-3.795-2.455a1,1,0,0,1-.455-.9c.19-3.415.368-9.264.037-10.421-.343-1.2.77-2.206,1.135-2.537a15.776,15.776,0,0,1,2.507-1.757c1.085-.64,2.182-1.192,2.889-1.533l-6.535-24.445a1,1,0,0,1,.052-.664l18.587-41.882L255.89,7.38,242.866,1.252l-7.117,9.489a1,1,0,0,1-.631.386l-13.96,2.394V28.313a1,1,0,0,1-.489.86l-15.634,9.3a1,1,0,0,1-1.088-.043l-6.925-4.888H183.415l-12.8,14.041a1,1,0,0,1-.739.326h-5.9l-5.2,5.6a1,1,0,0,1-.929.3L147.28,51.689a1,1,0,0,1-.545-.309L127.1,29.7l-10.248,8.671a1,1,0,0,1-.927.2L98.86,33.573,79.6,38.389V46.9a1,1,0,0,1-.684.949l-11.409,3.8a1,1,0,0,1-.916-.149L62.045,48.1,35.228,63.541v8.718a1,1,0,0,1-.764.972L19.356,76.906,14.522,90.6v24.338a1,1,0,0,1-.176.567l-4.231,6.154L14.308,127a1,1,0,0,1,.089,1.1L1.273,151.888l17.685,14.873H34.228a1,1,0,0,1,.812.416l3.953,5.5,10.355-2.091a1,1,0,0,1,.5.027l17.26,5.477,11.049-5.422a1,1,0,0,1,1.323.427Z" transform="translate(26.129 38.077)" fill="#572d16"/><path d="M115.681,262.738l0,0L103.424,254.7l-9.3,3.8L76.8,252.17H66.238l-8.028-17.748v-7.075H51.447l-2.958-11.094L66.238,207.8l-5.493-3.274V187.516l-9.3-2.429L40.99,178.643l-27.573,2.535-4.65-5.809,4.65-12.782-4.65-13.419,4.65-12.782L8.767,129.2,0,117.792l3.7-8.767-1.524.739L18.859,98.515l5.751,1.75,6.251-7.5,13,3,5-7.252h17l10.5-10,6.752,3.251,14.253-7.252-2.251-5.5h-.053l8.649-6.874,21.454,3.25,8.451,11.053,1.952,15.927,8.451,4.551,5.527,6.826,2.6-4.551,14.628,1.95,8.451-4.225h21.13l1.95-4.551V80.339l11.05-8.125h8.778l12.027-10.077h5.525l17.554-13.327h11.051l5.526-6.175h6.5l5.32-11.528,7.82,18.759,10.563,3.38L292.841,61.7l10.986,2.533v8.03L286.926,91.7l-6.762-3.8-11.408,16.9h8.028l3.38,4.227h26.623c-.109.054-10.959,5.117-10.8,5.832.012.055.092.083.235.083h29.157l-70.146,40.567-12.254-6.34V164.8l-3.38,3.38H229.455v7.185l-17.326,14.789-5.915-5.07-5.07,10.986L174.1,204.526H163.534l-12.254,14.789,4.225,8.032-11.515,12.993h-8.875l5.493,6.761H119.9l2.96,11.408-7.183,4.225ZM250.163,6.762h0L255.232,0l-5.068,6.762ZM76.785,3.417l0,0A19.216,19.216,0,0,1,81.71.174,19.442,19.442,0,0,0,76.785,3.417Z" transform="translate(189.664 117.942)" fill="#f6f4ef"/><path d="M115.682,263.738a1,1,0,0,1-.6-.2l-11.769-7.712-8.811,3.6a1,1,0,0,1-.722.014L76.625,253.17H66.238a1,1,0,0,1-.911-.588L57.3,234.833a1,1,0,0,1-.089-.412v-6.075H51.447a1,1,0,0,1-.966-.742L47.523,216.51a1,1,0,0,1,.536-1.16l16.06-7.648-3.886-2.317a1,1,0,0,1-.488-.859V188.288l-8.55-2.234a1,1,0,0,1-.272-.116l-10.173-6.269-27.241,2.5a1,1,0,0,1-.872-.371l-4.65-5.809a1,1,0,0,1-.159-.967l4.528-12.449L7.822,149.5a1,1,0,0,1,.005-.669l4.48-12.315L7.95,129.778-.793,118.4a1,1,0,0,1-.128-1l2.816-6.679a1,1,0,0,1-.281-1.79L18.3,97.686a1,1,0,0,1,.85-.127l5.116,1.557,5.827-6.99a1,1,0,0,1,.993-.334l12.339,2.847,4.616-6.693a1,1,0,0,1,.823-.432h16.6l10.212-9.725a1,1,0,0,1,1.124-.177l6.306,3.036L96.1,74.038l-1.792-4.381a1,1,0,0,1,.141-1.43l8.649-6.874a1,1,0,0,1,.772-.206L125.321,64.4a1,1,0,0,1,.645.381l8.451,11.053a1,1,0,0,1,.2.486L136.5,91.731l8,4.305a1,1,0,0,1,.3.251l4.606,5.689,1.874-3.281a1,1,0,0,1,1-.5l14.323,1.909,8.176-4.088a1,1,0,0,1,.447-.106H195.7l1.609-3.756V80.339a1,1,0,0,1,.408-.806l11.05-8.126a1,1,0,0,1,.592-.194h8.414l11.749-9.844a1,1,0,0,1,.642-.234h5.188l17.286-13.123a1,1,0,0,1,.6-.2h10.6l5.228-5.842a1,1,0,0,1,.745-.333h5.861l5.051-10.947a1,1,0,0,1,1.831.034l7.642,18.332,10.123,3.239a1,1,0,0,1,.457,1.6l-6.119,7.2,9.384,2.164a1,1,0,0,1,.775.974v8.03a1,1,0,0,1-.245.656l-16.9,19.438a1,1,0,0,1-1.245.215l-5.959-3.351-9.84,14.578h6.147a1,1,0,0,1,.781.375l3.08,3.852h26.143a1,1,0,0,1,.444,1.9l-.132.063c-1.91.9-3.738,1.786-5.288,2.565-1.129.567-2,1.024-2.683,1.392h26.25a1,1,0,0,1,.5,1.866l-70.146,40.567a1,1,0,0,1-.96.022l-10.794-5.585V164.8a1,1,0,0,1-.293.707l-3.38,3.38a1,1,0,0,1-.707.293h-9.143v6.185a1,1,0,0,1-.351.761l-17.326,14.789a1,1,0,0,1-1.3,0l-4.911-4.209-4.516,9.785a1,1,0,0,1-.61.535L174.4,205.48a1,1,0,0,1-.3.046H164l-11.528,13.913,3.915,7.442a1,1,0,0,1-.137,1.129L144.74,241a1,1,0,0,1-.748.337h-6.774l4.168,5.13a1,1,0,0,1-.776,1.631H121.2l2.635,10.157a1,1,0,0,1-.461,1.113l-7.094,4.173a1,1,0,0,1-.594.2ZM103.424,253.7a1,1,0,0,1,.548.164l11.734,7.689,6-3.529-2.77-10.678a1,1,0,0,1,.968-1.251h18.605l-4.168-5.13a1,1,0,0,1,.776-1.631h8.425L154.3,227.2l-3.9-7.42a1,1,0,0,1,.115-1.1l12.254-14.789a1,1,0,0,1,.77-.362h10.413l26.475-8.275,4.885-10.583a1,1,0,0,1,1.559-.34l5.266,4.514,16.324-13.934v-6.724a1,1,0,0,1,1-1h9.728l2.795-2.795V149.168a1,1,0,0,1,1.46-.888l11.767,6.088,66.446-38.427h-25.43a1.142,1.142,0,0,1-1.211-.863,1.482,1.482,0,0,1,.742-1.439,12.661,12.661,0,0,1,1.17-.755c.824-.484,1.989-1.108,3.461-1.855.617-.313,1.295-.651,2.013-1H280.163a1,1,0,0,1-.781-.375L276.3,105.8h-7.547a1,1,0,0,1-.829-1.559l11.408-16.9a1,1,0,0,1,1.319-.312l6.052,3.4,16.121-18.541v-6.86l-10.211-2.355a1,1,0,0,1-.537-1.622l6.212-7.31-9.135-2.923a1,1,0,0,1-.618-.568l-6.943-16.656-4.365,9.46a1,1,0,0,1-.908.581h-6.054l-5.228,5.842a1,1,0,0,1-.745.333H253.579L236.294,62.932a1,1,0,0,1-.6.2h-5.161L218.779,72.98a1,1,0,0,1-.642.233h-8.45l-10.378,7.631V92.366a1,1,0,0,1-.081.394l-1.95,4.551a1,1,0,0,1-.919.606H175.465l-8.24,4.12a1,1,0,0,1-.579.1l-13.961-1.861-2.265,3.966a1,1,0,0,1-1.646.133l-5.4-6.67L135.1,93.246a1,1,0,0,1-.518-.759L132.663,76.83l-8.04-10.516L104,63.19l-7.68,6.1L98.3,74.133a1,1,0,0,1-.472,1.27L83.573,82.655a1,1,0,0,1-.887.01l-6.129-2.951-10,9.524a1,1,0,0,1-.69.276H49.389l-4.7,6.82a1,1,0,0,1-1.048.407l-12.4-2.862-5.858,7.027a1,1,0,0,1-1.059.316l-5.3-1.612L4.66,109.293a1,1,0,0,1-.042.12l-3.471,8.231L9.56,128.591q.025.032.047.066l4.65,7.185a1,1,0,0,1,.1.885L9.828,149.176l4.533,13.083a1,1,0,0,1-.005.669L9.9,175.182l3.962,4.951L40.9,177.647a1,1,0,0,1,.616.144l10.33,6.366L61,186.549a1,1,0,0,1,.747.968v16.441l5.005,2.983a1,1,0,0,1-.082,1.762l-17,8.1,2.546,9.548h5.994a1,1,0,0,1,1,1v6.86l7.673,16.964H76.8a1,1,0,0,1,.344.061l16.96,6.2,8.939-3.656A1,1,0,0,1,103.424,253.7ZM250.163,7.762h0a1,1,0,0,1-.8-1.6L254.432-.6a1,1,0,0,1,1.4-.2,1,1,0,0,1,.2,1.4l-.04.054-5.028,6.708-.011.014A1,1,0,0,1,250.163,7.762ZM76.784,4.417a1,1,0,0,1-.652-.242l0,0a1,1,0,0,1-.106-1.409,19.319,19.319,0,0,1,5.234-3.48l0,0a1,1,0,0,1,.9,1.785,17.588,17.588,0,0,0-4.62,3A1,1,0,0,1,76.784,4.417Z" transform="translate(189.664 117.942)" fill="#572d16"/><path d="M73.207,206h0l-5.525-6.825-8.451-4.55L57.279,178.7l-8.451-11.053L27.374,164.4l-8.648,6.875H14.777l-2.75-5.75,6.751-10.5-2.75-9,9.5-3,2-11-.022.007c-.883.287-8.711,2.84-11.481,3.994a1.553,1.553,0,0,1-.6.111c-3.31,0-10.827-8.256-11.145-8.607l0-.005v-7.251l-4.251-2.75c.005-.088.491-9.036,0-10.751-.494-1.731,6.679-4.969,6.751-5L.024,76.506,18.778,34.248l-1.973-5.2.239.111L41.553,22.4,54.231,32.538,64.8,27.044l10.141,2.113,4.226-4.647L91.417,35.074h11.832l2.958,3.8,8.451-3.8-3.381-8.03,5.916-4.648V13.523h18.593l13.1-10.142,30,3.38L176.354,0h6.339l4.648,6.76-4.648,12.256,12.255,10.141h11.832v5.917L200.44,40.99,197.482,60l-9.31,8.534c-.514-.252-1.054-.516-1.606-.784l-8.4-9.349-9.425,9.425L155.86,59.56,139.9,67.831l-18.849-5.578,1.924,13.462L127.2,93.027l-20.773,4.041,3.077,15.771h6.155l8.463,9.81c0-.005.029-.032.072-.076l.05-.052c2.195-2.274,9.379-9.693,9.678-9.693.006,0,.01,0,.01.011,0,.379,5.719,9.426,5.962,9.81l-10,12.5,21.927,15.77,16.316-2.409,6.189-2.181-6.541-13.49h-7.117l-1.154-4.616,5.77-3.654,3.462-13.079,13.8,4.661.149.154v2.857l-3.8,5.915,16.058,3.8V121.7h5.493l4.86,11.664-5.322,11.53h-6.5l-5.526,6.176H177.234l-.041.249-.336.235.159.329-.01.008-.03.019c-1.325.795-2.535,1.483-3.408,1.939l-2.737,1.909-.026-.06-11.459,8.7H153.82l-12.026,10.077h-8.777L121.965,182.6v12.027l-1.95,4.55H98.886L90.434,203.4l-14.627-1.95L73.208,206Z" transform="translate(266.005 15.681)" fill="#f6f4ef"/><path d="M73.207,207a1,1,0,0,1-.7-.284h0l-.008-.008a1,1,0,0,1-.07-.078l-5.4-6.669-8.274-4.455a1,1,0,0,1-.519-.759l-1.918-15.658-8.041-10.517L27.655,165.45l-8.307,6.6a1,1,0,0,1-.622.217H14.777a1,1,0,0,1-.9-.569l-2.75-5.75a1,1,0,0,1,.061-.972l6.5-10.112-2.615-8.558a1,1,0,0,1,.655-1.246l8.927-2.819,1.592-8.757c-2.642.871-7.732,2.575-9.833,3.451a2.542,2.542,0,0,1-.986.188,7.081,7.081,0,0,1-3.646-1.462A32.824,32.824,0,0,1,8.061,132.7c-2.355-2.128-4.307-4.269-4.521-4.506l0,0a1,1,0,0,1-.26-.673v-6.707l-3.795-2.455a1,1,0,0,1-.455-.9c.131-2.241.4-9.161.037-10.414-.341-1.194.763-2.194,1.126-2.523a15.717,15.717,0,0,1,2.489-1.75c1.1-.649,2.2-1.208,2.916-1.552L-.942,76.765A1,1,0,0,1-.89,76.1L17.7,34.218,15.87,29.4a1,1,0,0,1,1.253-1.3l24.165-6.665a1,1,0,0,1,.891.183L54.347,31.35l9.987-5.193A1,1,0,0,1,65,26.065l9.582,2,3.842-4.224a1,1,0,0,1,1.393-.085L91.789,34.074h11.46a1,1,0,0,1,.789.386l2.475,3.182,6.844-3.079-3-7.13a1,1,0,0,1,.3-1.174l5.534-4.347V13.523a1,1,0,0,1,1-1h18.251l12.83-9.933a1,1,0,0,1,.724-.2l28.381,3.2L175.417.351a1,1,0,0,1,.114-.921,1,1,0,0,1,.822-.43h6.339a1,1,0,0,1,.824.433l4.648,6.76a1,1,0,0,1,.111.921L183.881,18.7l11.426,9.455h11.472a1,1,0,0,1,1,1v5.917a1,1,0,0,1-.318.731l-6.086,5.68-2.9,18.673a1,1,0,0,1-.312.583l-9.31,8.534a1,1,0,0,1-1.116.161c-.572-.281-1.1-.536-1.6-.782a1,1,0,0,1-.307-.231l-7.69-8.564-8.679,8.679a1,1,0,0,1-1.247.134l-12.4-7.959-15.451,8.005a1,1,0,0,1-.744.071l-17.355-5.136,1.7,11.871,4.22,17.263a1,1,0,0,1-.78,1.219L107.6,97.858l2.727,13.981h5.332a1,1,0,0,1,.757.347l7.747,8.98c1.264-1.307,3.166-3.267,4.919-5.046,1.182-1.2,2.128-2.146,2.812-2.813.4-.389.717-.691.945-.9a1.61,1.61,0,0,1,1.082-.581,1.012,1.012,0,0,1,.975.746c.338.733,3.169,5.313,5.842,9.541a1,1,0,0,1-.064,1.159l-9.344,11.68,20.743,14.919,15.82-2.336,5.043-1.777-5.779-11.919h-6.491a1,1,0,0,1-.97-.757l-1.154-4.616a1,1,0,0,1,.435-1.087l5.439-3.444,3.362-12.7a1,1,0,0,1,1.287-.692l13.8,4.661a1,1,0,0,1,.4.252l.149.154a1,1,0,0,1,.281.695v2.857a1,1,0,0,1-.159.541l-3.039,4.727,13.453,3.187V121.7a1,1,0,0,1,1-1h5.493a1,1,0,0,1,.923.615l4.86,11.664a1,1,0,0,1-.015.8l-5.322,11.53a1,1,0,0,1-.908.581h-6.054l-5.228,5.843a1,1,0,0,1-.745.333H178a1,1,0,0,1-.185.417,1.019,1.019,0,0,1-.271.247l-.01.006-.03.019-.012.008c-1.313.788-2.518,1.474-3.4,1.938l-2.685,1.873a1,1,0,0,1-.287.138l-11.166,8.476a1,1,0,0,1-.6.2h-5.163l-11.748,9.844a1,1,0,0,1-.642.234h-8.449l-10.379,7.632v11.521a1,1,0,0,1-.081.394l-1.95,4.55a1,1,0,0,1-.919.606H99.122l-8.24,4.121a1,1,0,0,1-.579.1l-13.961-1.861L74.076,206.5l-.006.011a1,1,0,0,1-.863.494ZM60.159,193.992l8,4.3a1,1,0,0,1,.3.251l4.606,5.69,1.874-3.281a1,1,0,0,1,1-.5l14.323,1.909,8.176-4.089a1,1,0,0,1,.447-.106h20.47l1.609-3.755V182.6a1,1,0,0,1,.408-.806l11.051-8.126a1,1,0,0,1,.592-.194h8.414l11.748-9.844a1,1,0,0,1,.642-.234h5.19L170.2,154.9a1,1,0,0,1,.36-.173l2.437-1.7a1,1,0,0,1,.109-.066c.725-.378,1.69-.922,2.763-1.557a1,1,0,0,1,.416-.671l.01-.007a1,1,0,0,1,.94-.658H187.5l5.228-5.843a1,1,0,0,1,.745-.333h5.861l4.87-10.55L199.773,122.7h-3.827v6.184a1,1,0,0,1-1.231.973l-16.058-3.8a1,1,0,0,1-.611-1.514l3.645-5.668v-1.95l-12.253-4.139-3.188,12.045a1,1,0,0,1-.432.589l-5.16,3.268.789,3.158h6.336a1,1,0,0,1,.9.564l6.541,13.49a1,1,0,0,1-.568,1.379l-6.189,2.181a1,1,0,0,1-.186.046l-16.316,2.409a1,1,0,0,1-.73-.177l-21.927-15.77a1,1,0,0,1-.2-1.437l9.557-11.945c-.56-.889-1.635-2.6-2.7-4.312-1.181-1.906-1.9-3.1-2.345-3.858-1.442,1.388-4.594,4.589-8.663,8.805l-.048.05-.042.044a1,1,0,0,1-1.509-.007l-8.164-9.464h-5.7a1,1,0,0,1-.981-.809l-3.077-15.771a1,1,0,0,1,.791-1.173l19.743-3.84L122,75.953q-.012-.047-.019-.1l-1.924-13.462a1,1,0,0,1,1.274-1.1l18.463,5.463L155.4,58.672a1,1,0,0,1,1,.046l12.208,7.836,8.856-8.856a1,1,0,0,1,1.451.039l8.264,9.2.82.4,8.549-7.836,2.9-18.668a1,1,0,0,1,.306-.577l6.021-5.619V30.157H194.947a1,1,0,0,1-.638-.23L182.055,19.786a1,1,0,0,1-.3-1.125L186.219,6.9,182.166,1H177.8l2.029,5.409a1,1,0,0,1-1.048,1.345l-29.6-3.334L136.4,14.313a1,1,0,0,1-.612.209H118.193V22.4a1,1,0,0,1-.382.786L112.5,27.359l3.085,7.326a1,1,0,0,1-.511,1.3l-8.451,3.8a1,1,0,0,1-1.2-.3l-2.658-3.416H91.417a1,1,0,0,1-.653-.243L79.247,25.9,75.676,29.83a1,1,0,0,1-.944.306L64.941,28.1,54.692,33.425a1,1,0,0,1-1.086-.106L41.327,23.5,18.19,29.878l1.523,4.015a1,1,0,0,1-.021.76L1.082,76.589,7.742,101.5a1,1,0,0,1-.564,1.174c-.012.005-1.545.7-3.142,1.611-2.451,1.406-2.934,2.124-3.023,2.3.144.58.3,1.915.2,6.183-.043,1.748-.116,3.377-.157,4.215l3.766,2.437a1,1,0,0,1,.457.84v6.861c.616.664,2.259,2.4,4.126,4.088,3.909,3.532,5.515,3.914,6.024,3.914a.566.566,0,0,0,.215-.033c2.809-1.171,10.671-3.734,11.558-4.023l.021-.007a1,1,0,0,1,1.294,1.13l-2,11a1,1,0,0,1-.683.775l-8.557,2.7,2.461,8.054a1,1,0,0,1-.115.833l-6.45,10.033,2.238,4.678h2.97l8.374-6.657a1,1,0,0,1,.772-.206l21.453,3.25a1,1,0,0,1,.645.381l8.451,11.053a1,1,0,0,1,.2.486Z" transform="translate(266.005 15.681)" fill="#542912"/><path d="M45.393,92.515h0L23.465,76.745l10-12.5-.058-.091c-1.385-2.2-5.9-9.385-5.9-9.719,0-.007,0-.011-.01-.011-.3,0-7.483,7.419-9.678,9.693l-.049.053-.025.025-.016.017a.343.343,0,0,0-.031.034l-8.463-9.81H3.077L0,38.661,20.773,34.62,16.541,17.31,14.617,3.847,33.466,9.425,49.431,1.154,62.317,9.425,71.742,0l8.4,9.349c.552.268,1.09.53,1.605.783l-.83.763V23.573l-17.325-6.76,6.339,6.76L67.391,36.25l-7.184,3.8,12.255,3.8-5.07,6.762h8.874V57.9l-.15-.154-13.8-4.661L58.855,66.165l-5.77,3.654,1.154,4.616h7.117L67.9,87.925l-6.189,2.181L45.393,92.515Z" transform="translate(372.434 74.087)" fill="#f6f4ef"/><path d="M45.393,93.515h0a1,1,0,0,1-.585-.188L22.881,77.556a1,1,0,0,1-.2-1.437l9.556-11.945c-.794-1.26-2.033-3.235-3.155-5.056-.914-1.483-1.5-2.458-1.886-3.115-1.441,1.388-4.592,4.587-8.659,8.8l-.044.047-.022.023-.028.028a1,1,0,0,1-1.509-.006L8.774,55.432h-5.7a1,1,0,0,1-.982-.809L-.982,38.853a1,1,0,0,1,.152-.75,1,1,0,0,1,.638-.423l19.743-3.84L15.57,17.547q-.012-.048-.019-.1L13.627,3.989a1,1,0,0,1,1.274-1.1L33.364,8.352,48.971.266a1,1,0,0,1,1,.046L62.179,8.148,71.035-.707A1,1,0,0,1,71.769-1a1,1,0,0,1,.717.332l8.264,9.2c.485.236.966.47,1.433.7a1,1,0,0,1,.236,1.634l-.507.466V23.573a1,1,0,0,1-1.364.932L67.336,19.349l3.319,3.54a1,1,0,0,1,.251.88L68.371,36.446a1,1,0,0,1-.513.688L62.8,39.811,72.758,42.9a1,1,0,0,1,.5,1.555l-3.871,5.163h6.874a1,1,0,0,1,1,1V57.9a1,1,0,0,1-1.7.717L63.01,54.376,59.822,66.421a1,1,0,0,1-.432.589l-5.16,3.268.789,3.158h6.336a1,1,0,0,1,.9.564L68.8,87.489a1,1,0,0,1-.568,1.379L62.04,91.049a1,1,0,0,1-.186.046L45.539,93.5A1,1,0,0,1,45.393,93.515ZM24.9,76.547,45.647,91.467l15.82-2.336,5.042-1.777L60.73,75.435H54.239a1,1,0,0,1-.97-.757l-1.154-4.616a1,1,0,0,1,.435-1.087l5.439-3.444,3.362-12.7a1,1,0,0,1,1.287-.692L75.265,56.4V51.618H67.391a1,1,0,0,1-.8-1.6l4.22-5.628-10.9-3.382a1,1,0,0,1-.172-1.839L66.5,35.588l2.341-11.707L62.858,17.5a1,1,0,0,1,1.093-1.616l15.962,6.228V10.9a1,1,0,0,1,.124-.483l-.336-.163a1,1,0,0,1-.308-.232L71.7,1.453l-8.679,8.679a1,1,0,0,1-1.247.134l-12.4-7.959L33.927,10.313a1,1,0,0,1-.744.071L15.828,5.248l1.7,11.871,4.22,17.263a1,1,0,0,1-.78,1.219L1.173,39.452,3.9,53.432H9.232a1,1,0,0,1,.757.347l7.747,8.98C19,61.454,20.9,59.494,22.655,57.713c1.182-1.2,2.128-2.146,2.812-2.813.4-.389.717-.691.945-.9a1.61,1.61,0,0,1,1.082-.581,1.012,1.012,0,0,1,.974.745c.3.638,2.6,4.4,5.783,9.448l.057.09a1,1,0,0,1-.062,1.163Z" transform="translate(372.434 74.087)" fill="#572d16"/></g></g></svg>