<svg xmlns="http://www.w3.org/2000/svg" xmlns:xlink="http://www.w3.org/1999/xlink" width="1900" height="1900" viewBox="0 0 1900 1900">
  <defs>
    <clipPath id="clip-path">
      <rect width="292" height="616" fill="none"/>
    </clipPath>
    <clipPath id="clip-path-2">
      <rect width="1237.494" height="824" fill="none"/>
    </clipPath>
    <clipPath id="clip-Web_1920_2">
      <rect width="1900" height="1900"/>
    </clipPath>
  </defs>
  <g id="Web_1920_2" data-name="Web 1920 – 2" clip-path="url(#clip-Web_1920_2)">
    <rect width="1900" height="1900" fill="#fff"/>
    <g id="長方形_39" data-name="長方形 39" fill="#d5d5d5" stroke="#707070" stroke-width="1">
      <rect width="1930" height="316" stroke="none"/>
      <rect x="0.5" y="0.5" width="1929" height="315" fill="none"/>
    </g>
    <g id="長方形_40" data-name="長方形 40" transform="translate(0 1580)" fill="#d5d5d5" stroke="#707070" stroke-width="1">
      <rect width="1930" height="316" stroke="none"/>
      <rect x="0.5" y="0.5" width="1929" height="315" fill="none"/>
    </g>
    <g id="長方形_38" data-name="長方形 38" transform="translate(1502 493)" fill="#c3f5c3" stroke="#707070" stroke-width="1">
      <rect width="331" height="860" rx="18" stroke="none"/>
      <rect x="0.5" y="0.5" width="330" height="859" rx="17.5" fill="none"/>
    </g>
    <g id="長方形_37" data-name="長方形 37" transform="translate(87 486)" fill="#eecdcd" stroke="#707070" stroke-width="1">
      <rect width="1387" height="974" rx="55" stroke="none"/>
      <rect x="0.5" y="0.5" width="1386" height="973" rx="54.5" fill="none"/>
    </g>
    <g id="リピートグリッド_2" data-name="リピートグリッド 2" transform="translate(1521 550)" clip-path="url(#clip-path)">
      <g transform="translate(-6202 538)">
        <g id="長方形_22" data-name="長方形 22" transform="translate(6202 -538)" fill="#cce5f6" stroke="#707070" stroke-width="1">
          <rect width="287" height="287" stroke="none"/>
          <rect x="0.5" y="0.5" width="286" height="286" fill="none"/>
        </g>
      </g>
      <g transform="translate(-6202 859)">
        <g id="長方形_22-2" data-name="長方形 22" transform="translate(6202 -538)" fill="#cce5f6" stroke="#707070" stroke-width="1">
          <rect width="287" height="287" stroke="none"/>
          <rect x="0.5" y="0.5" width="286" height="286" fill="none"/>
        </g>
      </g>
    </g>
    <g id="リピートグリッド_3" data-name="リピートグリッド 3" transform="translate(162 561)" clip-path="url(#clip-path-2)">
      <g id="グループ_3" data-name="グループ 3" transform="translate(-155 -219)">
        <g id="グループ_1" data-name="グループ 1" transform="translate(119 -58)">
          <g id="長方形_21" data-name="長方形 21" transform="translate(36 277)" fill="rgba(179,170,238,0.73)" stroke="#707070" stroke-width="1">
            <rect width="393" height="393" stroke="none"/>
            <rect x="0.5" y="0.5" width="392" height="392" fill="none"/>
          </g>
          <g id="パス_1" data-name="パス 1" transform="translate(46.494 277)" fill="rgba(179,170,238,0.73)">
            <path d="M392,393h0Z" stroke="none"/>
            <path d="M 0 393 L 392 393 L 0 393 Z" stroke="none" fill="#707070"/>
          </g>
        </g>
        <g id="長方形_36" data-name="長方形 36" transform="translate(186 246)" fill="#dbd6d6" stroke="#707070" stroke-width="1">
          <rect width="332" height="182" rx="20" stroke="none"/>
          <rect x="0.5" y="0.5" width="331" height="181" rx="19.5" fill="none"/>
        </g>
        <text id="title" transform="translate(199 477)" fill="rgba(5,3,17,0.73)" font-size="34" font-family="Meiryo"><tspan x="0" y="0">title</tspan></text>
        <text id="テキストテキストテキストテキストテキ_ストテキストテキストテキストテキスト" data-name="テキストテキストテキストテキストテキ
ストテキストテキストテキストテキスト" transform="translate(199 514)" fill="rgba(13,11,29,0.73)" font-size="18" font-family="Meiryo"><tspan x="0" y="0">テキストテキストテキストテキストテキ</tspan><tspan x="0" y="27">ストテキストテキストテキストテキスト</tspan></text>
        <text id="xxxx_xx_xx" data-name="xxxx/xx/xx" transform="translate(366 590)" fill="rgba(22,18,42,0.73)" font-size="28" font-family="Meiryo"><tspan x="0" y="0">xxxx/xx/xx</tspan></text>
      </g>
      <g id="グループ_3-2" data-name="グループ 3" transform="translate(268 -219)">
        <g id="グループ_1-2" data-name="グループ 1" transform="translate(119 -58)">
          <g id="長方形_21-2" data-name="長方形 21" transform="translate(36 277)" fill="rgba(179,170,238,0.73)" stroke="#707070" stroke-width="1">
            <rect width="393" height="393" stroke="none"/>
            <rect x="0.5" y="0.5" width="392" height="392" fill="none"/>
          </g>
          <g id="パス_1-2" data-name="パス 1" transform="translate(46.494 277)" fill="rgba(179,170,238,0.73)">
            <path d="M392,393h0Z" stroke="none"/>
            <path d="M 0 393 L 392 393 L 0 393 Z" stroke="none" fill="#707070"/>
          </g>
        </g>
        <g id="長方形_36-2" data-name="長方形 36" transform="translate(186 246)" fill="#dbd6d6" stroke="#707070" stroke-width="1">
          <rect width="332" height="182" rx="20" stroke="none"/>
          <rect x="0.5" y="0.5" width="331" height="181" rx="19.5" fill="none"/>
        </g>
        <text id="title-2" data-name="title" transform="translate(199 477)" fill="rgba(5,3,17,0.73)" font-size="34" font-family="Meiryo"><tspan x="0" y="0">title</tspan></text>
        <text id="テキストテキストテキストテキストテキ_ストテキストテキストテキストテキスト-2" data-name="テキストテキストテキストテキストテキ
ストテキストテキストテキストテキスト" transform="translate(199 514)" fill="rgba(13,11,29,0.73)" font-size="18" font-family="Meiryo"><tspan x="0" y="0">テキストテキストテキストテキストテキ</tspan><tspan x="0" y="27">ストテキストテキストテキストテキスト</tspan></text>
        <text id="xxxx_xx_xx-2" data-name="xxxx/xx/xx" transform="translate(366 590)" fill="rgba(22,18,42,0.73)" font-size="28" font-family="Meiryo"><tspan x="0" y="0">xxxx/xx/xx</tspan></text>
      </g>
      <g id="グループ_3-3" data-name="グループ 3" transform="translate(691 -219)">
        <g id="グループ_1-3" data-name="グループ 1" transform="translate(119 -58)">
          <g id="長方形_21-3" data-name="長方形 21" transform="translate(36 277)" fill="rgba(179,170,238,0.73)" stroke="#707070" stroke-width="1">
            <rect width="393" height="393" stroke="none"/>
            <rect x="0.5" y="0.5" width="392" height="392" fill="none"/>
          </g>
          <g id="パス_1-3" data-name="パス 1" transform="translate(46.494 277)" fill="rgba(179,170,238,0.73)">
            <path d="M392,393h0Z" stroke="none"/>
            <path d="M 0 393 L 392 393 L 0 393 Z" stroke="none" fill="#707070"/>
          </g>
        </g>
        <g id="長方形_36-3" data-name="長方形 36" transform="translate(186 246)" fill="#dbd6d6" stroke="#707070" stroke-width="1">
          <rect width="332" height="182" rx="20" stroke="none"/>
          <rect x="0.5" y="0.5" width="331" height="181" rx="19.5" fill="none"/>
        </g>
        <text id="title-3" data-name="title" transform="translate(199 477)" fill="rgba(5,3,17,0.73)" font-size="34" font-family="Meiryo"><tspan x="0" y="0">title</tspan></text>
        <text id="テキストテキストテキストテキストテキ_ストテキストテキストテキストテキスト-3" data-name="テキストテキストテキストテキストテキ
ストテキストテキストテキストテキスト" transform="translate(199 514)" fill="rgba(13,11,29,0.73)" font-size="18" font-family="Meiryo"><tspan x="0" y="0">テキストテキストテキストテキストテキ</tspan><tspan x="0" y="27">ストテキストテキストテキストテキスト</tspan></text>
        <text id="xxxx_xx_xx-3" data-name="xxxx/xx/xx" transform="translate(366 590)" fill="rgba(22,18,42,0.73)" font-size="28" font-family="Meiryo"><tspan x="0" y="0">xxxx/xx/xx</tspan></text>
      </g>
      <g id="グループ_3-4" data-name="グループ 3" transform="translate(-155 194)">
        <g id="グループ_1-4" data-name="グループ 1" transform="translate(119 -58)">
          <g id="長方形_21-4" data-name="長方形 21" transform="translate(36 277)" fill="rgba(179,170,238,0.73)" stroke="#707070" stroke-width="1">
            <rect width="393" height="393" stroke="none"/>
            <rect x="0.5" y="0.5" width="392" height="392" fill="none"/>
          </g>
          <g id="パス_1-4" data-name="パス 1" transform="translate(46.494 277)" fill="rgba(179,170,238,0.73)">
            <path d="M392,393h0Z" stroke="none"/>
            <path d="M 0 393 L 392 393 L 0 393 Z" stroke="none" fill="#707070"/>
          </g>
        </g>
        <g id="長方形_36-4" data-name="長方形 36" transform="translate(186 246)" fill="#dbd6d6" stroke="#707070" stroke-width="1">
          <rect width="332" height="182" rx="20" stroke="none"/>
          <rect x="0.5" y="0.5" width="331" height="181" rx="19.5" fill="none"/>
        </g>
        <text id="title-4" data-name="title" transform="translate(199 477)" fill="rgba(5,3,17,0.73)" font-size="34" font-family="Meiryo"><tspan x="0" y="0">title</tspan></text>
        <text id="テキストテキストテキストテキストテキ_ストテキストテキストテキストテキスト-4" data-name="テキストテキストテキストテキストテキ
ストテキストテキストテキストテキスト" transform="translate(199 514)" fill="rgba(13,11,29,0.73)" font-size="18" font-family="Meiryo"><tspan x="0" y="0">テキストテキストテキストテキストテキ</tspan><tspan x="0" y="27">ストテキストテキストテキストテキスト</tspan></text>
        <text id="xxxx_xx_xx-4" data-name="xxxx/xx/xx" transform="translate(366 590)" fill="rgba(22,18,42,0.73)" font-size="28" font-family="Meiryo"><tspan x="0" y="0">xxxx/xx/xx</tspan></text>
      </g>
      <g id="グループ_3-5" data-name="グループ 3" transform="translate(268 194)">
        <g id="グループ_1-5" data-name="グループ 1" transform="translate(119 -58)">
          <g id="長方形_21-5" data-name="長方形 21" transform="translate(36 277)" fill="rgba(179,170,238,0.73)" stroke="#707070" stroke-width="1">
            <rect width="393" height="393" stroke="none"/>
            <rect x="0.5" y="0.5" width="392" height="392" fill="none"/>
          </g>
          <g id="パス_1-5" data-name="パス 1" transform="translate(46.494 277)" fill="rgba(179,170,238,0.73)">
            <path d="M392,393h0Z" stroke="none"/>
            <path d="M 0 393 L 392 393 L 0 393 Z" stroke="none" fill="#707070"/>
          </g>
        </g>
        <g id="長方形_36-5" data-name="長方形 36" transform="translate(186 246)" fill="#dbd6d6" stroke="#707070" stroke-width="1">
          <rect width="332" height="182" rx="20" stroke="none"/>
          <rect x="0.5" y="0.5" width="331" height="181" rx="19.5" fill="none"/>
        </g>
        <text id="title-5" data-name="title" transform="translate(199 477)" fill="rgba(5,3,17,0.73)" font-size="34" font-family="Meiryo"><tspan x="0" y="0">title</tspan></text>
        <text id="テキストテキストテキストテキストテキ_ストテキストテキストテキストテキスト-5" data-name="テキストテキストテキストテキストテキ
ストテキストテキストテキストテキスト" transform="translate(199 514)" fill="rgba(13,11,29,0.73)" font-size="18" font-family="Meiryo"><tspan x="0" y="0">テキストテキストテキストテキストテキ</tspan><tspan x="0" y="27">ストテキストテキストテキストテキスト</tspan></text>
        <text id="xxxx_xx_xx-5" data-name="xxxx/xx/xx" transform="translate(366 590)" fill="rgba(22,18,42,0.73)" font-size="28" font-family="Meiryo"><tspan x="0" y="0">xxxx/xx/xx</tspan></text>
      </g>
      <g id="グループ_3-6" data-name="グループ 3" transform="translate(691 194)">
        <g id="グループ_1-6" data-name="グループ 1" transform="translate(119 -58)">
          <g id="長方形_21-6" data-name="長方形 21" transform="translate(36 277)" fill="rgba(179,170,238,0.73)" stroke="#707070" stroke-width="1">
            <rect width="393" height="393" stroke="none"/>
            <rect x="0.5" y="0.5" width="392" height="392" fill="none"/>
          </g>
          <g id="パス_1-6" data-name="パス 1" transform="translate(46.494 277)" fill="rgba(179,170,238,0.73)">
            <path d="M392,393h0Z" stroke="none"/>
            <path d="M 0 393 L 392 393 L 0 393 Z" stroke="none" fill="#707070"/>
          </g>
        </g>
        <g id="長方形_36-6" data-name="長方形 36" transform="translate(186 246)" fill="#dbd6d6" stroke="#707070" stroke-width="1">
          <rect width="332" height="182" rx="20" stroke="none"/>
          <rect x="0.5" y="0.5" width="331" height="181" rx="19.5" fill="none"/>
        </g>
        <text id="title-6" data-name="title" transform="translate(199 477)" fill="rgba(5,3,17,0.73)" font-size="34" font-family="Meiryo"><tspan x="0" y="0">title</tspan></text>
        <text id="テキストテキストテキストテキストテキ_ストテキストテキストテキストテキスト-6" data-name="テキストテキストテキストテキストテキ
ストテキストテキストテキストテキスト" transform="translate(199 514)" fill="rgba(13,11,29,0.73)" font-size="18" font-family="Meiryo"><tspan x="0" y="0">テキストテキストテキストテキストテキ</tspan><tspan x="0" y="27">ストテキストテキストテキストテキスト</tspan></text>
        <text id="xxxx_xx_xx-6" data-name="xxxx/xx/xx" transform="translate(366 590)" fill="rgba(22,18,42,0.73)" font-size="28" font-family="Meiryo"><tspan x="0" y="0">xxxx/xx/xx</tspan></text>
      </g>
    </g>
    <text id="grid-box" transform="translate(610 455)" fill="rgba(22,18,42,0.73)" font-size="71" font-family="Meiryo"><tspan x="0" y="0">grid-box</tspan></text>
    <text id="sidebar" transform="translate(1521 461)" fill="rgba(22,18,42,0.73)" font-size="73" font-family="Meiryo"><tspan x="0" y="0">sidebar</tspan></text>
    <text id="header" transform="translate(805 209)" fill="rgba(22,18,42,0.73)" font-size="95" font-family="Meiryo"><tspan x="0" y="0">header</tspan></text>
    <text id="header-2" data-name="header" transform="translate(805 1789)" fill="rgba(22,18,42,0.73)" font-size="95" font-family="Meiryo"><tspan x="0" y="0">header</tspan></text>
  </g>
</svg>
