<svg id="レイヤー_1" data-name="レイヤー 1" xmlns="http://www.w3.org/2000/svg" viewBox="0 0 60 60"><path d="M44.83,25.79a4.35,4.35,0,0,0-2.28.16c0,.68,0,1.4-.07,2.19-.13,5.09.24,4.34,0,5.88-.07.47-.18.92-.29,1.37l.29-.19c2.42-1.6,5.24-4.8,4.7-7.06A3.52,3.52,0,0,0,44.83,25.79Z"/><path d="M31.89,18.73c-1.83-.11-2.3,0-4.7,0-3.92,0-4.2-.3-5.88,0s-4.67,1.16-4.71,2.35,3.19,2.25,3.53,2.36c2.15.65,3.08.2,7.06,0,4.93-.25,6.61.27,8.23-1.18.08-.06,1.53-1.4,1.18-2.35S34.49,18.89,31.89,18.73Z"/><path d="M50,9C44.32,4,37.64,3.41,33,3c-3.72-.33-10.45-.84-17,3a26,26,0,0,0-6,5A29.42,29.42,0,0,0,4,22,32,32,0,0,0,2,36c.29,2.93,1,9.63,6,15,7.12,7.58,17.92,7.16,22,7a36.61,36.61,0,0,0,7-1c2.46-.6,8.41-2,13-6,7.24-6.25,7.82-16,8-19C58.17,29.15,58.9,16.82,50,9ZM47.18,35.2c-2.24,2.55-5.75,5.28-6.92,4.77a31.72,31.72,0,0,1-2.48,3.46c-2,2.43-2.61,3.19-3.53,3.53-1.3.48-2.19.18-4.71,0-4-.28-4.3.31-5.88,0-4.43-.87-6.87-6.44-8.23-9.41-.31-.68-1-4-2.36-10.58-.49-2.39-.81-4.08,0-5.89a8.34,8.34,0,0,1,3.53-3.52c.73-.46,2.67-1.59,7.06-2.36,1.65-.28,2.12-.25,12.94,0,2.16.05,3.65.09,4.7,1.18.4.41.92,1.16,1.18,4.7,0,.44.05.85.07,1.24.41,0,.8-.05,1.11-.06a6.81,6.81,0,0,1,4.7,1.18,6.52,6.52,0,0,1,2.35,4.7C50.88,31,49.08,33.05,47.18,35.2Z"/></svg>